<?xml version="1.0" encoding="utf-8"?><svg xmlns="http://www.w3.org/2000/svg" xmlns:xlink="http://www.w3.org/1999/xlink"><symbol viewBox="0 0 128 128" id="hammer" xmlns="http://www.w3.org/2000/svg"><circle cx="64" cy="64" r="64" data-name="Circle Grid"/><path d="M43.542 33.907L79.265 69.63l-6.92 6.92-35.722-35.723a1.437 1.437 0 010-2.026l4.893-4.893a1.437 1.437 0 012.026-.001z"/><path d="M41.9 35.549l35.724 35.723-5.278 5.278-35.723-35.723a1.437 1.437 0 010-2.026l3.252-3.252a1.437 1.437 0 012.025 0z"/><path d="M79.63 67.6l-9.311 9.311a1.437 1.437 0 000 2.026L91.068 99.69a8.249 8.249 0 0011 .77 8.011 8.011 0 00.578-11.864L81.656 67.6a1.437 1.437 0 00-2.026 0zm19.726 29.03a3.754 3.754 0 110-5.309 3.761 3.761 0 010 5.309zM77.178 28.153c-1.074.243-2.1.5-3.06.75-10.526 2.786-14.407 6.342-15.683 7.943l-.03.03a1.422 1.422 0 00-.1 1.6l2.44 4.224a2.864 2.864 0 01-.446 3.465L49.51 56.956a1.449 1.449 0 01-1.368.375l-2.756-.709a1.449 1.449 0 00-1.367.378l-1.6 1.6a1.421 1.421 0 00-.355 1.266l.628 2.979a1.43 1.43 0 01-.385 1.317L37.1 69.367a1.428 1.428 0 01-2.026 0L23.422 57.716a1.428 1.428 0 010-2.026l5.2-5.2a1.468 1.468 0 011.337-.385l2.746.659a1.468 1.468 0 001.337-.385l1.692-1.692a1.412 1.412 0 00.375-1.348l-.659-2.705a1.436 1.436 0 01.385-1.358l6.109-6.109a25.5 25.5 0 014.316-3.485c21.111-13.573 30.918-5.529 30.918-5.529z"/><path d="M74.119 28.9c-10.526 2.786-14.407 6.342-15.683 7.943l-.03.03a10.756 10.756 0 00-1.611 1.611 1.4 1.4 0 00-.091 1.591l2.441 4.225a2.881 2.881 0 01-.456 3.475l-9.179 9.181a1.449 1.449 0 01-1.368.375l-2.756-.709a1.449 1.449 0 00-1.367.378l-3.171 3.171a1.451 1.451 0 00-.4 1.307l.638 2.968a1.43 1.43 0 01-.385 1.317L37.1 69.367a1.428 1.428 0 01-2.026 0L23.422 57.716a1.428 1.428 0 010-2.026l3.586-3.59a1.431 1.431 0 011.337-.385l2.756.648a1.431 1.431 0 001.337-.385l3.293-3.293a1.412 1.412 0 00.375-1.348l-.659-2.705a1.436 1.436 0 01.385-1.358l4.508-4.508a25.371 25.371 0 014.307-3.466c16.463-10.592 26.047-8.039 29.472-6.4zM74.174 82.81L85.51 71.477l1.762 1.762-11.335 11.335zm5.216 5.218l11.335-11.335 1.773 1.772-11.336 11.336z"/></symbol><symbol viewBox="0 0 20.156 20" id="icons--basket" xmlns="http://www.w3.org/2000/svg"><path d="M16 16a2 2 0 102 2 2 2 0 00-2-2zM4.008 18A2 2 0 106 16a2 2 0 00-1.992 2zm13.3-14H5.16L7.4 8.73l.129.27h7.021zm-13.1-2H20l.16.96-3.862 7.01A1.988 1.988 0 0114.55 11H7.1l-.9 1.63-.03.12a.256.256 0 00.249.25H18v2H6a2.005 2.005 0 01-2-2 1.933 1.933 0 01.249-.96l1.352-2.45L2 2H0V0h3.269z" fill-rule="evenodd"/></symbol><symbol viewBox="0 0 1140.56 787.27" id="svg-graphic--log" xmlns="http://www.w3.org/2000/svg"><path d="M8.76 414.46c20.16-32.93 65.75-27.19 98.08-10s64.59 42.85 100.17 37.92c30-4.16 54.6-30.32 67.89-60.5s17.19-64.21 20.93-97.54q7.05-62.81 14.09-125.7c1.72-15.33 3.75-31.51 12.37-43.64 11.39-16 32.27-20.92 50.13-16.11s33.09 17.71 46.12 32.1c41.74 46.08 65.39 108.37 101.88 159.65 7.43 10.44 15.82 20.76 26.92 25.8 16 7.25 34.37 2.12 50-5.95 51-26.29 85.26-79.94 118.93-130 16.38-24.33 36.35-50.35 63.6-53 28.67-2.85 53.56 21.58 70.41 47.45 54.08 83.24 65.67 196.88 131 269.48 8.11 9 17.06 17.32 27.37 22.91a70.65 70.65 0 0010.6 4.65c57 19.73 76 98.93 33.84 145.89-.91 1-1.84 2-2.78 3-6.26 6.61-13.35 12.86-21.81 14.83-7.87 1.82-16-.28-23.8-2.55-49.86-14.55-99.12-36.79-150.67-35.71-50.16 1-97.74 24.17-147.34 32.51-33.35 5.61-67.28 4.49-101 3.28q-168.46-6.06-336.85-14.1c-55.72-2.56-111.46-5-167.17-7.85-42.92-2.23-70.26-7.14-75.24-56.95-4.36-43.62-43.52-97.63-17.67-139.87z" opacity=".1"/><ellipse cx="789.9" cy="749.54" rx="269.99" ry="37.73"/><path d="M148.74 586.77s13.2-3 21.85 5.87c0 0-5.56 5-18.64-.54zm-1.46-.13s-7.82 11.08-2.86 22.45c0 0 6.76-3.25 6.57-17.45zm-8.8-16.7s4.69-10.15 27 2.12c0 0-2.4 6.78-11.88 6.88s-12.32-4.01-15.12-9zm-1.42-.62s-11.17-.52-10.54 24.92c0 0 7.13 1 11.58-7.38s2.09-12.71-1.04-17.54zm-7.78-19.8s5-17.68 28.47-6.88c0 0-4.1 16.19-25.8 12.64zm-8.71-25.34s10.58-18.24 32.49-3.44c0 0-6.19 16.87-30.29 9.55zm-4.14-24.4s12.63-16.95 34.36-2.31c0 0-12.06 14.94-34.09 6.4zm-3.74-23.72s12.76-17.66 33.59-3.15c0 0-14.68 15.83-33.33 7.07zm-.18-21.26s13.15-22.53 32.65-9.17c0 0-14.42 19.57-32.37 13.26zm1.77-24.98s14-22.4 33.09-7.18c0 0-17.1 19.75-32.87 11.15zm3.63-22.46s17-21.31 33.55-14.37c0 0-17.68 22.6-34 19.76zm5-21.4s19.54-26 32.37-18.62c0 0-14.31 20.09-33.58 23.35zm7.62-24.94s17.17-21.32 31-17.24c0 0-14.45 21.89-33.1 23.68zm6.85-23.31s19.18-20.6 28.31-17.82c0 0-13.35 22.36-28.92 22.15zm6.77-21.56s16.09-24.15 25.82-23c0 0-9.31 21.19-25.66 25.33zm6.99-28.91s14.39-18.66 22.81-19.18c0 0-10.71 24.34-23.07 25zm4-19.21l12.58-37.69s3 33.1-14 44.62zm3.39-40.86s.44-30.79-1.33-33.17c0 0 12.47 24.74 2.14 46.71zm-29.89 321.98s-16.26-8.62-24.77 15.73c0 0 14.5 8.28 27-9.81zM120 523.23s-19.72-7.45-27.35 17.88c0 0 15.47 9.15 29.51-11.76zm-4.36-21.92s-14.79-15.11-34.36 2.33c0 0 13.94 13.19 34.63 1.79zm-3.42-25.21s-15-15.81-33.71 1.36c0 0 16.66 13.73 34 2.55zm.33-20.7s-11.36-23.47-31.83-11.67c0 0 12.86 20.63 31.24 15.74z"/><path d="M115.45 429.64s-11.33-23.9-32.06-11.07c0 0 14.66 21.61 31.34 14.93zm4.53-22.3s-5.64-26.65-23.55-27.87c0 0 5.68 28.13 21.51 32.88zm3.39-21.36s-3.67-32.31-18.46-32.46c0 0 2.15 24.57 17.11 37.15zm8.63-25.99s-6.21-26.66-20.47-29c0 0 3.5 26 19.53 35.72zm7.06-22.2s-2-28.07-10.9-31.62c0 0-3.61 25.78 8.65 35.38zm5.73-21.99s-3.15-28.85-12.31-32.32c0 0-1.5 23.09 11.1 34.3zm7.75-26.34s-1.64-23.51-8.35-28.61c0 0-4.58 26.19 5.35 33.56z"/><path d="M154.28 266.92l-8.8-38.74s-6.23 32.64 9.57 45.78zm-1.37-39s-17.63-25.28-17.49-28.22c0 0 3.54 27.48 24.41 39.89zm1.37-7.89s-17.46-36.39-24.43-39c0 0 22.09 9.43 25.61 37.8z"/><path d="M150.82 293.25l-1-.25c9.85-42 11.24-68.48 3.9-74.56l.68-.82c7.74 6.44 6.52 32.6-3.58 75.63z"/><path d="M122.54 391.91l-1.55-.43c1.09-3.86 2.27-7.79 3.53-11.66 11-33.72 20.14-65 25.75-88.94l1.27-.75c-5.62 24-14.51 56.43-25.49 90.18-1.25 3.86-2.43 7.76-3.51 11.6z"/><path d="M169.59 616.31c-.22-.21-22.22-21.87-39.12-60.24a232.37 232.37 0 01-18.61-70.77c-3-30.53 1.1-65.13 10-96.9l1.28 1.32c-20 71.31-6.19 130.34 9.23 165.4 16.73 38 38.48 59.45 38.7 59.66zM193.81 502.1s8-1.83 13.22 3.55c0 0-3.37 3-11.27-.33zm-.87-.07s-4.72 6.7-1.72 13.57c0 0 4.08-2 4-10.55zm-5.32-10.11s2.83-6.13 16.3 1.29c0 0-1.45 4.09-7.18 4.15s-7.41-2.42-9.12-5.44zm-.86-.37s-6.76-.31-6.38 15.06c0 0 4.31.6 7-4.46s1.27-7.68-.62-10.6zm-4.73-11.97s3.07-10.69 17.23-4.18c0 0-2.47 9.79-15.59 7.64zm-5.24-15.32s6.39-11 19.64-2.08c0 0-3.75 10.2-18.31 5.77zm-2.51-14.75s7.64-10.25 20.77-1.4c0 0-7.28 9-20.6 3.87zm-2.26-14.34s7.72-10.68 20.31-1.9c0 0-8.87 9.57-20.15 4.27zm-.1-12.86s8-13.61 19.73-5.54c0 0-8.72 11.83-19.57 8zm1.04-15.09s8.49-13.55 20-4.38c0 0-10.34 11.94-19.88 6.74zm2.22-13.58s10.27-12.88 20.28-8.68c0 0-10.69 13.66-20.53 11.94zm3.02-12.94s11.81-15.71 19.57-11.26c0 0-8.65 12.15-20.3 14.12zm4.61-15.06s10.38-12.89 18.76-10.42c0 0-8.73 13.23-20 14.31zm4.14-14.11s11.59-12.45 17.11-10.77c0 0-8.06 13.51-17.48 13.39zm4.09-13.03s9.73-14.6 15.61-13.92c0 0-5.62 12.81-15.51 15.32zm4.24-17.48s8.7-11.28 13.79-11.6c0 0-6.48 14.72-13.95 15.09zm2.41-11.62l7.59-22.76s1.8 20-8.49 27zm2.05-24.7s.26-18.61-.81-20.05c0 0 7.54 14.95 1.29 28.24zm-18.08 194.66s-9.82-5.22-15 9.5c0 0 8.77 5 16.33-5.92zm-5.21-15.72s-11.93-4.5-16.54 10.81c0 0 9.35 5.53 17.84-7.1zm-2.65-13.21s-8.93-9.13-20.77 1.4c0 0 8.43 8 20.94 1.08zm-2.06-15.24s-9.07-9.55-20.38.83c0 0 10.07 8.29 20.54 1.54zm.2-12.55s-6.87-14.19-19.25-7.06c0 0 7.78 12.47 18.89 9.52z"/><path d="M173.69 407.09s-6.85-14.45-19.41-6.69c0 0 8.86 13.07 18.95 9zm2.74-13.45s-3.41-16.12-14.24-16.85c0 0 3.43 17 13 19.87zm2.05-12.93s-2.2-19.53-11.2-19.63c0 0 1.3 14.86 10.34 22.47zm5.21-15.71s-3.75-16.12-12.37-17.54c0 0 2.12 15.71 11.81 21.59zm4.27-13.42s-1.23-17-6.58-19.12c0 0-2.19 15.59 5.22 21.39zm3.47-13.3s-1.9-17.44-7.44-19.54c0 0-.91 14 6.71 20.74zm4.68-15.92s-1-14.21-5-17.3c0 0-2.77 15.84 3.23 20.29z"/><path d="M197.19 308.73l-5.32-23.42s-3.77 19.74 5.78 27.68zm-.85-23.57s-10.65-15.27-10.57-17.06c0 0 2.13 16.61 14.75 24.11zm.8-4.78s-10.56-22-14.77-23.55c0 0 13.36 5.7 15.48 22.86z"/><path d="M195.07 324.64l-.63-.15c6-25.39 6.8-41.4 2.36-45.07l.41-.5c4.71 3.9 3.97 19.72-2.14 45.72z"/><path d="M177.98 384.3l-.94-.27c.66-2.33 1.38-4.7 2.14-7 6.63-20.39 12.17-39.3 15.56-53.77l.77-.46c-3.4 14.5-8.77 34.12-15.41 54.53-.76 2.31-1.47 4.64-2.12 6.97z"/><path d="M206.42 519.96c-.13-.13-13.43-13.22-23.65-36.42a140.72 140.72 0 01-11.25-42.78c-1.83-18.46.67-39.38 6.06-58.59l.77.8c-12.09 43.11-3.74 78.8 5.58 100 10.12 23 23.26 35.93 23.4 36.06z"/><path d="M236.5 569.96a38.24 38.24 0 00-7.5 2.14c-53.94 21.54-53.04 162.54-53.04 162.54h-15.88s-5-60.51-26.79-146.84c-19.63-77.67 60.88-147.28 77.23-160.48 1.84-1.47 2.86-2.25 2.86-2.25 81.09 29.8 23.12 144.89 23.12 144.89z"/><path d="M219.28 427.52c-1.87-.86-3.8-1.68-5.85-2.43 0 0-1 .78-2.86 2.25-16.35 13.2-96.86 82.81-77.23 160.48 21.79 86.33 26.74 146.82 26.74 146.82h8.93s-4.95-60.51-26.79-146.84c-19.55-77.31 60.18-146.66 77.06-160.28z" opacity=".2"/><path d="M504.04 587.82c-21.84 86.33-26.76 146.82-26.76 146.82h-15.91s1-147.36-56.73-163.81a31.53 31.53 0 00-3.81-.89s-58-115.09 23.12-144.87c0 0 .82.61 2.3 1.8 15.03 12.03 97.64 82.38 77.79 160.95z"/><path d="M236.5 569.96a38.24 38.24 0 00-7.5 2.14 979.21 979.21 0 01-18.48-144.76c1.84-1.47 2.86-2.25 2.86-2.25 81.09 29.78 23.12 144.87 23.12 144.87zm189.78-143.07a901 901 0 01-21.61 144 31.53 31.53 0 00-3.81-.89s-58-115.09 23.12-144.87c-.03-.04.79.57 2.3 1.76z" opacity=".1"/><path d="M396.59 591.78q-8.4 33.14-19.69 68s-35.72 37.21-122 0c0 0-8.62-24.3-18.1-65.61-20.87-90.83-45.9-263.92 7.43-441.71A661.75 661.75 0 01311.41 0s45.56 52.31 79 152.43 54.72 248.07 6.18 439.35z"/><circle cx="318.66" cy="293.6" r="71.63"/><path d="M369.46 293.64a50.8 50.8 0 01-83 39.29 51.33 51.33 0 01-9.52-10.33 50 50 0 01-3.28-5.39 50.7 50.7 0 01-5.79-23.57v-1.21a50.86 50.86 0 0137-47.72 52.53 52.53 0 0112.24-1.86h1.52a50.8 50.8 0 0150.83 50.79zM390.4 152.43c-81.27 38.91-146.22 0-146.22 0A661.75 661.75 0 01311.41 0s45.56 52.31 78.99 152.43zm6.19 439.35q-5.7 22.44-12.7 45.65-3.32 11.07-7 22.32s-35.72 37.21-122 0c0 0-2.8-7.89-7-22.32-3.14-10.9-7.05-25.51-11.13-43.29 0 0 32.12 13.71 77.71 13.71a214.11 214.11 0 0082.12-16.07z"/><path d="M383.89 637.43q-3.32 11.07-7 22.32s-35.72 37.21-122 0c0 0-2.8-7.89-7-22.32-.01 0 87.93 25.3 136 0z"/><path d="M304.9 244.64l-.11.08-36.9 47.64v1.21a50.7 50.7 0 005.79 23.57l43.48-74.36zm11.78 43l-30.22 45.25a51.33 51.33 0 01-9.52-10.33l36-38.64z" opacity=".2"/><path d="M274.2 659.76s-8.62-24.31-18.1-65.61c-20.87-90.84-45.9-263.93 7.43-441.72a664.18 664.18 0 0158.85-138.09c-6.77-9.49-11-14.33-11-14.33a661.68 661.68 0 00-67.2 152.42c-53.33 177.79-28.3 350.88-7.43 441.72 9.48 41.3 18.1 65.61 18.1 65.61 34.09 14.69 60.28 17.77 79.5 16.13-16.42-1.25-36.36-5.88-60.15-16.13z" opacity=".2"/><path d="M936.98 728.93s46.74-58.16 43.64-116.41a113.05 113.05 0 0118.54-69.06 190.19 190.19 0 0122-27"/><path d="M1019.39 479.78c-3.34 8.11 1.66 37.68 1.66 37.68s24.37-17.48 27.71-25.59a15.88 15.88 0 00-29.37-12.09zm-42.78 34.94c1.61 8.62 21.88 30.72 21.88 30.72s11-27.91 9.35-36.54a15.884 15.884 0 00-31.23 5.82zm-30.54 77.22c5.74 6.63 34.4 15.48 34.4 15.48s-4.64-29.63-10.38-36.27a15.88 15.88 0 00-24 20.79zm-9.95 63.63c4.53 7.51 31.28 21.07 31.28 21.07s.44-30-4.09-37.5a15.884 15.884 0 10-27.19 16.43zm92.56-95.86c-8.14 3.25-37.66-2.05-37.66-2.05s17.72-24.19 25.87-27.45a15.884 15.884 0 0111.79 29.5zm-12.58 74.27c-8.74.67-35.32-13.22-35.32-13.22s24.14-17.79 32.89-18.46a15.89 15.89 0 012.43 31.68zm-22.13 70.5c-8.51 2.14-37.05-7.06-37.05-7.06s20.79-21.61 29.3-23.74a15.88 15.88 0 117.75 30.8z"/><path d="M1019.39 479.78c-3.34 8.11 1.66 37.68 1.66 37.68s24.37-17.48 27.71-25.59a15.88 15.88 0 00-29.37-12.09zm-42.78 34.94c1.61 8.62 21.88 30.72 21.88 30.72s11-27.91 9.35-36.54a15.884 15.884 0 00-31.23 5.82zm-30.54 77.22c5.74 6.63 34.4 15.48 34.4 15.48s-4.64-29.63-10.38-36.27a15.88 15.88 0 00-24 20.79zm-9.95 63.63c4.53 7.51 31.28 21.07 31.28 21.07s.44-30-4.09-37.5a15.884 15.884 0 10-27.19 16.43zm92.56-95.86c-8.14 3.25-37.66-2.05-37.66-2.05s17.72-24.19 25.87-27.45a15.884 15.884 0 0111.79 29.5zm-12.58 74.27c-8.74.67-35.32-13.22-35.32-13.22s24.14-17.79 32.89-18.46a15.89 15.89 0 012.43 31.68zm-22.13 70.5c-8.51 2.14-37.05-7.06-37.05-7.06s20.79-21.61 29.3-23.74a15.88 15.88 0 117.75 30.8z" opacity=".25"/><path d="M937.4 726.5s66.3-34.24 87.07-88.74a113 113 0 0144.94-55.63 189.91 189.91 0 0131-15.76"/><path d="M1113.7 532.1c-6.34 6.07-13.75 35.13-13.75 35.13s29.36-6.11 35.7-12.17a15.897 15.897 0 00-21.95-23zm-53.26 14.61c-2 8.54 7.55 37 7.55 37s21.29-21.07 23.35-29.66a15.88 15.88 0 00-30.9-7.34zm-59.22 58.22c2.56 8.39 25.18 28.09 25.18 28.09s7.77-29 5.21-37.35a15.885 15.885 0 00-30.39 9.26zm-34.88 54.14c1.1 8.71 20.06 31.94 20.06 31.94s12.56-27.23 11.45-35.94a15.881 15.881 0 00-31.51 4zm123.47-50.13c-8.77-.32-33.6-17.13-33.6-17.13s26-14.93 34.77-14.61a15.88 15.88 0 11-1.17 31.74zm-41.6 62.8c-8.27-2.93-26.94-26.4-26.94-26.4s29.29-6.47 37.55-3.54a15.882 15.882 0 11-10.61 29.94zm-48.81 55.49c-8.64-1.49-31-21.47-31-21.47s27.77-11.32 36.41-9.83a15.881 15.881 0 11-5.4 31.3z"/><path d="M1031.67 694.36l-51.39-74.53s-1-18.45-4.32-22.76-.72-13.9-.72-13.9 3.6-5.27.48-5.75-.48-12.23-.48-12.23L975 546.5s2.88-18 .48-22.28a7.07 7.07 0 01.24-7.67s2.88-10.31 0-12.94-2.16-18.7-1.44-31.4-5.05-19.89-5.05-21.81-19-20.61-19-22.28-12-8.63-19.21-10.55-10.81-3.35-10.57-4.31-11.29-4.79-11.29-4.79-10.09-.72-13.94-5.76-15.59-6.48-15.93-6.53c-.07-.33-.15-.67-.22-1s-.15-.72-.22-1.08c.91-1.53 1.75-3.09 2.51-4.7.23-.49.45-1 .66-1.46 4.21-.19 8.53-1.09 11.83-3.67a16.11 16.11 0 005.75-11.49 25.19 25.19 0 00-2.81-12.77c-2.1-4.32-5.19-8.79-4.13-13.47.47-2 1.68-3.8 2.3-5.78 1.17-3.75.09-7.87-1.73-11.35s-4.35-6.54-6.37-9.91a38.7 38.7 0 01-5.07-14c-.41-2.6-.57-5.34-1.88-7.63a14.21 14.21 0 00-4.21-4.25 42.07 42.07 0 00-25.82-7.83c-6.54.23-13.06 2-19.55 1.19-3.91-.48-7.64-1.87-11.42-3-8.06-2.38-17.35-3.36-24.37 1.25s-9.81 13.68-14.56 20.77c-4.2 6.28-10.36 11.54-13.56 18.18 0-.12.06-.25.1-.38a21.75 21.75 0 00-1.79 4.84c-1.22 5.22-.2 10.68 1.07 15.89.65 2.69 1.55 5.61 3.88 7.1s5.63 1.16 8.39 1.65c-.1.45-.22.91-.32 1.37a54.9 54.9 0 0038.09 64v1.46a36.33 36.33 0 01-.25 4.12s-24.15-5-30.64-1.6-19.22 6-21.14 7.9-6.72.48-11 11.75-4.8 22.76-10.33 28-8.4 8.87-8.64 12.71.72 4.79-1.45 6-5.28 6.23-4.32 8.15c0 0 1.2 4.79-2.64 7.18s-3.37 7.19-3.37 7.19-1.44 5.28-4.8 6.47-5.53 9.11-5.53 9.11l-10.93 12.55-21.59-23.9a9.1 9.1 0 00-12.85-.66l-10.6 9.56a20.94 20.94 0 00-10.61 6.32 27.35 27.35 0 00-5.49 8.18l-5.81 5.22a14.75 14.75 0 00-1.49 16.28l13.83 15.29.09.13c-5.23.66-9.85 2.34-13.38 5.45-20.65 18.21-20.9 35-17.77 42.65s29.3 37.15 29.3 37.15 15.21 19.77 37.17 30.29l-.17.17c-.43.46-.86 1-1.28 1.5l-.36.46-.33.46-.39.58c-.11.15-.21.31-.31.47s-.28.45-.41.69l-.27.46c-.16.3-.33.61-.49.93l-.16.31c-.2.42-.4.85-.59 1.3-.07.16-.13.33-.2.49-.12.31-.25.63-.37 1s-.15.41-.22.62-.21.62-.31.94-.14.45-.2.67-.2.7-.29 1.06-.11.42-.17.65c-.13.55-.26 1.12-.37 1.72 0 .22-.08.45-.12.68q-.12.6-.21 1.23c-.05.29-.08.58-.12.87s-.1.79-.15 1.19l-.09.92c0 .44-.08.9-.11 1.36 0 .28 0 .56-.05.84 0 .76-.08 1.52-.09 2.32-.48 28 1.16 32.11 1.16 32.11s3.39 8.93 12.75 9.57a16.3 16.3 0 004.11-.22c12.49-2.16 41.79-7.19 52.12-5.27 6.21 1.15 17.71-.55 25.9-2.1l2.15-.41 1.5 4.76 4.75-1.3 4 2.33 2.55 1.46c4.74 16.08 24 10.6 24 10.6l4.52 2.62 46.36 1.2s10 6 16.41 7.88a15.24 15.24 0 002.33.51 105.21 105.21 0 0012.92.24c3.55-.09 6.3-.24 6.3-.24s-.47-12.59-1.15-26.68c17.72-.74 33.43-1.85 42.94-3.52 24.76-4.35 35.09-26.86 38.89-38.89a113.19 113.19 0 012.43 14.93 106.74 106.74 0 003.85 12.94 43.73 43.73 0 005.28 9.58c18.26-6.23 7.21-15.57 3.36-19.65s2.65-7.43 2.65-7.43 5-3.35 4.56-6.47-.72-6.47 15.61-6.23 15.65-13.45 15.65-13.45zm-253.66-153c.21 1.37 2.49 16.14 4.55 20 .43.82.6 3.73.54 7.89-9.68-.77-19.76-1.18-19.76-1.18a2.32 2.32 0 01.52 1.23l-1.52-.34-2.21-.54 17.83-27.12zm-35.32 56.2l16.75 2.66 1.41.22a55.11 55.11 0 00-.87 7.91c0 .25.38.55.92.9a21.57 21.57 0 00-.33 4c.27 1.33 8.1 4.19 17.08 6.57-.12.48-.24.94-.36 1.37-7.93-4.17-20.43-6.12-21.87-9.22s-44-18-44-18-1.55-.82-4.23-2.12l11.2 2.12 3.08-.31a167.91 167.91 0 0021.22 3.88z"/><path d="M976.99 704.79s-6.66 40.23-40.47 46.18-146.66 4.76-146.66 4.76-64.52-9.28-87.85-63.8-38.33-76.19-18.33-77.14 127.85 36.43 134 36.9 165.26-82.85 159.31 53.1z"/><path d="M976.99 704.79s-6.66 40.23-40.47 46.18-146.66 4.76-146.66 4.76-64.52-9.28-87.85-63.8-38.33-76.19-18.33-77.14 127.85 36.43 134 36.9 165.26-82.85 159.31 53.1z" opacity=".05"/><path d="M674.35 749.54s3.37 8.88 12.64 9.51a16.43 16.43 0 004.07-.22c12.38-2.14 41.43-7.14 51.66-5.24 6.16 1.15 17.55-.55 25.66-2.08 5.4-1 9.34-2 9.34-2S768.2 717.85 767 716.9s-42.85-25.95-42.85-25.95l-33-2.37h-.1s-6.11.41-11.18 6.57c-3.49 4.21-6.48 11.13-6.68 22.47-.46 27.87 1.16 31.92 1.16 31.92z"/><path d="M674.35 749.54s3.37 8.88 12.64 9.51a135.54 135.54 0 01-9-13.08l.17-23.09c-1.47-17.29 6.62-28.36 13-34.27h-.1s-17.38 1.18-17.86 29 1.15 31.93 1.15 31.93z" opacity=".05"/><path d="M817.48 699.07l30.71-24 48.33-47.62s-5.22-.25-13.09-.59c-2 1.25-7.45 5.18-7.65 10-.24 5.82-13.07.4-19.73 3.73s-39.28 45.08-45 44.81-10.23-2.9-12.62 1.15c0 .09-.11.17-.17.26zm-137.6-3.9c1.09.53 2.19 1 3.32 1.52 23.34 10 52.14 31 54.29 34.76 1.3 2.32 18 12.46 30.89 20.06 5.4-1 9.34-2 9.34-2S768.2 717.85 767 716.9s-42.85-25.95-42.85-25.95l-33-2.37h-.1s-6.1.43-11.17 6.59z" opacity=".1"/><path d="M615.12 626.93c3.09 7.62 29 36.91 29 36.91s16.42 21.42 39.76 31.42 52.14 31 54.28 34.76c1.38 2.45 20 13.65 33.08 21.35l2.93 1.71 6.5 3.77 3.44 2s8-6.4 15.91-12.84 15.63-12.75 15.76-13.11c.23-.71 3.32-8.81 2.61-9.28-.37-.25-2-3.55-5-7.37a33.82 33.82 0 00-12.13-10c-11-5-15.71-16.38-15.71-16.38s-1-.76-2.63-1.76c-2.82-1.78-7.35-4.34-10.7-4.77-5.25-.66-15-11.37-15-11.37s-6.67-4.29-9.29-9.76c-2.5-5.22-39.42-30.58-42.84-32.92l89.51 57.48 21.42 13.77 30.71-24 48.34-47.62s-6.5-.32-16-.72c-23.49-1-65.21-2.61-70.48-1.42a40.17 40.17 0 01-13.1.85s-11.88.54-19.74-3.61-20.25-6.09-21.68-9.16-43.57-17.85-43.57-17.85-57.37-30.47-77.85-12.37-20.63 34.68-17.53 42.29zM800.1 452.19l7.38 24.52 9.52 55.23 35 2.38 10.13-16.8 10.15-16.77s6.3-22.32 10.83-43.91c4-19.1 6.62-37.64 2.26-39.65-3.86-1.79-6.4-8.22-8-15.14-.21-.85-.4-1.72-.58-2.59a134.62 134.62 0 01-2.32-17.75s-73.33-3.8-63.09 26.43a48.18 48.18 0 012.76 16.08 38.23 38.23 0 01-.25 4.09 34.3 34.3 0 01-13.79 23.88z"/><path d="M784.86 448.14l2.62 41.66 5.95 35.47 6.67 16.43 5.95 89.88s57.41 6.64 71.37-.12a6.14 6.14 0 002.53-2c16.86-25.43 11.33-99.19 11.33-99.19l6.43-47.63-4.29-24.72-10.35-1.1-8-.85s-1.8 2.22-4.4 5.65c-7.06 9.32-20 27.65-19.17 35.3 1.18 10.48-1.43 21.19-5.48 22.86s-7.38 4.52-8.09 1.67-1.43-3.57-.72-7.62-3.1-16.43-3.1-16.43-6.42-14.52-6-20.71-.71-13.34-2.62-15-4.52-3.34-2.38-11-9.39-22.45-9.39-22.45z"/><path d="M860.69 552.19l2.38 71.19 13.75 7.62a6.15 6.15 0 002.53-2c16.87-25.47 11.34-99.22 11.34-99.22l6.43-47.62-4.29-24.71-10.36-1.1c4-19.1 6.62-37.64 2.27-39.65-3.87-1.79-6.41-8.22-8.06-15.14l-7.4 50.4s.62 4.54.84 9.22c.17 3.48.11 7-.6 8.87-1.67 4.29-.48 11.91-.48 11.91-4.29 7.56-6.43 21.57-7.48 35.1-1.41 17.99-.87 35.13-.87 35.13z" opacity=".1"/><path d="M876.91 400.46s12 1.49 15.8 6.49 13.81 5.69 13.81 5.69 11.43 3.81 11.19 4.76 3.33 2.39 10.48 4.29 19 8.81 19 10.48S966 452.4 966 454.31s5.72 9 5 21.66-1.43 28.57 1.43 31.19 0 12.86 0 12.86a7 7 0 00-.15 7.62c2.38 4.29-.47 22.15-.47 22.15l.23 18.57s-2.62 11.66.48 12.14-.48 5.71-.48 5.71-2.62 9.53.72 13.81 4.28 22.62 4.28 22.62l51 74s.72 13.57-15.47 13.33-16 3.1-15.48 6.19-4.52 6.43-4.52 6.43-6.43 3.33-2.62 7.38 14.76 13.33-3.33 19.52a43.16 43.16 0 01-5.24-9.52 107.72 107.72 0 01-3.81-12.85s-1.67-18.1-5-20.48-2.86-13.81-2.86-13.81 4.76-9.28-1.9-13.09-103.43-57.33-103.43-57.33L862 551.22s-1.67-52.61 8.33-70.23c0 0-1.19-7.62.48-11.9s-.24-18.1-.24-18.1z"/><path d="M814.51 429.02s-23.93-4.93-30.36-1.6-19 6-21 7.86-6.67.48-10.95 11.67-4.77 22.61-10.24 27.85-8.33 8.81-8.57 12.62.71 4.76-1.43 6-5.24 6.19-4.29 8.1 49.61 43.75 49.61 43.75 2.39 16 4.53 20-2.38 59.76-7.14 63.57 32.14 3.46 32.14 3.46 1.66-36.55 3.09-38.46-1-41-1-41-.24-33.33 2.86-42.14 2.75-38.06 2.75-38.06 2.74-17.57 6.07-21.67-6.07-21.95-6.07-21.95z" opacity=".1"/><path d="M813.8 428.31s-23.94-4.93-30.37-1.6-19 5.95-20.95 7.86-6.66.47-11 11.66-4.76 22.62-10.24 27.86-8.33 8.81-8.57 12.62.72 4.76-1.42 5.95-5.24 6.19-4.29 8.09 49.52 43.81 49.52 43.81 2.38 16 4.52 20-2.38 59.75-7.14 63.56 32.14 3.46 32.14 3.46 1.67-36.55 3.1-38.45-1-41-1-41-.23-33.33 2.86-42.14 2.75-38.1 2.75-38.1 2.74-17.57 6.06-21.66-5.97-21.92-5.97-21.92z"/><path d="M811.28 408.14a48.18 48.18 0 012.76 16.08 54.63 54.63 0 0062.65-24.76 134.62 134.62 0 01-2.32-17.75s-73.32-3.8-63.09 26.43z" opacity=".1"/><path d="M775.1 370.52a54.52 54.52 0 101.18-11.33 54.53 54.53 0 00-1.18 11.33zM740.1 496.7l-13.09 4.05s1.19 4.76-2.62 7.14-3.33 7.15-3.33 7.15-1.43 5.23-4.76 6.42-5.48 9-5.48 9l-10.95 12.62s-4.05 3.33-3.33 5-4.29 2.14-4.29 2.14l2.62 42.42 22.62 4.29 14-1.43 11.43-4.29 10-6 4.56-11.57 20-30.47z"/><path d="M695.58 553.64s-29-41.91-50.71-19.29 8.81 59.28 15.95 58.09 41.19-3.09 41.19-3.09z"/><rect x="671.34" y="583.93" width="61.42" height="69.8" rx="12.62" ry="12.62" transform="rotate(-42.05 613.877 629.306)"/><rect x="671.34" y="583.93" width="61.42" height="69.8" rx="12.62" ry="12.62" transform="rotate(-42.05 613.877 629.306)" opacity=".1"/><rect x="672.16" y="580.48" width="61.42" height="69.8" rx="12.62" ry="12.62" transform="rotate(-42.05 614.695 625.858)"/><circle cx="672.39" cy="560.74" r="13.57"/><circle cx="672.39" cy="560.74" r="13.57" opacity=".1"/><circle cx="673.15" cy="559.02" r="13.57"/><path d="M676.78 562.41c-.24 31.43 64.76 38.09 64.76 38.09l16.6 2.64 7.44 1.18 3.1-30.68s-3.41-.51-7.67-1.5c-6.29-1.47-14.44-4-16.15-7.55-2.85-5.95-67.85-33.6-68.08-2.18z"/><path d="M776.28 359.19a6.47 6.47 0 014 1.78c1.84 1.95 1.94 5.41 4.33 6.61a4.92 4.92 0 002.84.33c6.33-.9 10-8 16.07-10 3.46-1.12 7.27-.39 10.65.91a7.93 7.93 0 013.53 2.27c2 2.63.61 6.5 1.55 9.69 1.31 4.42 6.59 6.18 11.16 6.76s9.72.9 12.77 4.35c2.16 2.45 2.71 6 2.27 9.21a7.29 7.29 0 000 3.41c1.26 3.57 7.44 3 9.05.22 1.18-2.05.82-3.75 3.6-4.32 1.88-.39 4.09.4 5.83 1a42.71 42.71 0 0015.08 2.32 54.53 54.53 0 10-102.73-34.54z" opacity=".1"/><path d="M845.42 393.07a7.29 7.29 0 010-3.41c.43-3.23-.11-6.77-2.27-9.21-3-3.45-8.2-3.78-12.77-4.35s-9.85-2.33-11.16-6.75c-.94-3.19.48-7.07-1.55-9.7a7.8 7.8 0 00-3.52-2.26c-3.39-1.31-7.2-2-10.66-.92-6.07 2-9.74 9.12-16.07 10a4.92 4.92 0 01-2.84-.33c-2.39-1.2-2.49-4.66-4.33-6.6-2.89-3.06-8.38-1.09-11.92-3.36-2.31-1.49-3.2-4.38-3.84-7.05-1.26-5.18-2.27-10.61-1.06-15.79 2.07-8.86 10-14.93 15-22.49 4.71-7.05 7.35-16 14.43-20.64s16.17-3.61 24.15-1.24c3.74 1.11 7.44 2.49 11.31 3 6.44.79 12.9-1 19.38-1.18a41.62 41.62 0 0125.59 7.77 14.16 14.16 0 014.18 4.23c1.29 2.28 1.46 5 1.85 7.58a38.75 38.75 0 005 13.93c2 3.35 4.51 6.39 6.32 9.85s2.87 7.55 1.71 11.27c-.61 2-1.82 3.73-2.27 5.74-1.06 4.65 2 9.09 4.09 13.38a25.1 25.1 0 012.78 12.69 16 16 0 01-5.7 11.41c-3.37 2.64-7.8 3.52-12.07 3.66a42.78 42.78 0 01-15.38-2.31c-1.75-.6-4-1.39-5.83-1-2.78.57-2.42 2.27-3.6 4.32-1.52 2.8-7.69 3.33-8.95-.24z"/><path d="M816.05 700.5l30.71-24 48.34-47.62s-6.5-.32-16-.72c-1.73 1.76-3.27 4-3.37 6.5-.24 5.82-13.07.41-19.73 3.74s-39.28 45.07-45 44.8-10.23-2.9-12.62 1.15a2.46 2.46 0 01-.17.27 6.77 6.77 0 01-3.63 2.15z" opacity=".1"/><path d="M754.15 698.83l15.43 49.26 2.42 7.74 7.35-2 16.2-4.45 72.16-19.82s13.56-.18 26-6.93c13.75-7.48 29.26-11.24 44.84-9.78 9.54.89 20.15-3.22 29-19.48 0 0 20-59-30.48-76s-52.88 9-52.88 9-.26.14-.68.42c-2 1.25-7.45 5.18-7.65 10-.24 5.82-13.07.4-19.73 3.73s-39.28 45.08-45 44.81-10.23-2.9-12.62 1.15c0 .09-.11.17-.17.26-1.76 2.43-7.06 3-10.57 3.09-1.91.06-3.3 0-3.3 0l-.45.14-3.74 1.04z"/><path d="M758.14 603.14l7.44 1.18 3.1-30.68s-3.41-.51-7.67-1.5c1.13 4.25-1.43 20.82-2.87 31z" opacity=".1"/><path d="M952.82 459.64s22.14-6.43 16.66 56.43-46.42 102.57-46.42 102.57-47.14 20.71-68.33 17.38-36.66-4-36.66-4a53.79 53.79 0 00-21.43-5.71c-11.91-.48-36.9-7.86-37.38-10.24s6.19-37.38 3.33-40c0 0 33.33 1.37 36.67 3.78s8.09.68 11.66 0 14.53-10.21 36.19-1.87c0 0 7.38.71 10.24-1.19s7.44-.48 7.44-.48 4.49-1.67 5.18-2.67 6.42 0 6.42 0a2.54 2.54 0 003.58-1.67 15.56 15.56 0 013.33-5.23s6.43-36.19 18.57-49.76c0 0 3.57-3.1 2.62-6.91s19.79-58.06 48.33-50.43z" opacity=".1"/><path d="M952.28 454.8s22.14-6.43 16.67 56.43-46.48 102.61-46.48 102.61-47.14 20.71-68.33 17.38-36.66-4.05-36.66-4.05a53.72 53.72 0 00-21.43-5.71c-11.9-.48-36.9-7.86-37.38-10.24s6.19-37.38 3.34-40c0 0 33.33 1.37 36.66 3.78s8.1.68 11.67 0 14.52-10.2 36.19-1.87c0 0 7.38.71 10.23-1.19s7.45-.48 7.45-.48 4.46-1.67 5.17-2.62 6.43 0 6.43 0a2.53 2.53 0 003.57-1.66 15.54 15.54 0 013.33-5.24s6.43-36.19 18.57-49.76c0 0 3.57-3.1 2.62-6.9s19.76-58.1 48.38-50.48z"/><path d="M780.28 691.01l31.44 38c.12-.11.2-.19.2-.22.24-.72 3.33-8.81 2.62-9.29s-6.19-12.38-17.14-17.38c-6.69-3-11.07-8.49-13.46-12.25z" opacity=".1"/><path d="M780.71 756.85l3.44 2s8-6.4 15.91-12.84 15.63-12.75 15.76-13.11c.23-.71 3.32-8.81 2.61-9.28-.37-.25-2-3.55-5-7.37-21.32-6-7.75 8.83-5.94 9.51 0 0-26-6-27.38 22.31a33.36 33.36 0 00.6 8.78z" opacity=".1"/><path d="M807 768.83l4.53 2.62 46 1.19s9.86 6 16.26 7.82a13.93 13.93 0 002.31.51 103.27 103.27 0 0012.8.24c3.52-.09 6.25-.24 6.25-.24s-2.18-58-3.82-64c-.78-2.92-4.63-2.28-8.43-.82a55.19 55.19 0 00-8.23 4.17s-19.52 1.89-22.62 3.57-11.9-1-17.38 0-15.23-6.45-15.23-6.45c-26.67-8.8-11.67 7.62-9.77 8.34 0 0-25.94-6-27.37 22.31s24.7 20.74 24.7 20.74z"/><path d="M873.43 746.45c.5 12 9.85 26.89 15.42 34.76 3.52-.09 6.25-.24 6.25-.24s-2.18-58-3.82-64c-.78-2.92-4.63-2.28-8.43-.82-4.57 8.6-9.82 20.63-9.42 30.3z"/><path d="M873.43 746.45c.5 12 9.85 26.89 15.42 34.76 3.52-.09 6.25-.24 6.25-.24s-2.18-58-3.82-64c-.78-2.92-4.63-2.28-8.43-.82-4.57 8.6-9.82 20.63-9.42 30.3z" opacity=".1"/><path d="M865.57 748.04c3.16 11.58 3.13 24.57 8.17 32.42a13.93 13.93 0 002.31.51 103.27 103.27 0 0012.8.24c3.52-.09 6.25-.24 6.25-.24s-2.18-58-3.82-64c-.78-2.92-4.63-2.28-8.43-.82a55.19 55.19 0 00-8.23 4.17s-13.09 12.9-9.05 27.72z" opacity=".05"/><path d="M707.05 630.58s22.82 7.41 42.16 33.73zM892.51 344.9a4.67 4.67 0 01-.14.5 16.15 16.15 0 01-.79 2 14.93 14.93 0 01.93-2.5zm-129.12-11.55a21.46 21.46 0 011.77-4.81c-.12.41-.25.82-.35 1.24-1.21 5.18-.2 10.61 1.06 15.79.65 2.67 1.53 5.56 3.84 7.05 3.55 2.27 9 .29 11.92 3.35 1.84 1.95 1.94 5.41 4.34 6.61a4.91 4.91 0 002.84.33c6.32-.9 10-8 16.07-10 3.46-1.12 7.26-.39 10.65.92a7.8 7.8 0 013.52 2.26c2 2.63.61 6.51 1.55 9.69 1.31 4.42 6.59 6.18 11.16 6.75s9.72.9 12.77 4.36c2.16 2.44 2.71 6 2.27 9.21a7.42 7.42 0 000 3.41c1.26 3.57 7.44 3 9 .22 1.18-2.05.83-3.75 3.61-4.32 1.87-.39 4.08.4 5.82 1a42.78 42.78 0 0015.38 2.31c4.27-.15 8.71-1 12.07-3.66a14 14 0 003.7-4.5 15.14 15.14 0 01-5.1 8.08c-3.36 2.64-7.79 3.52-12.07 3.66a42.69 42.69 0 01-15.37-2.31c-1.75-.6-4-1.39-5.83-1-2.78.57-2.43 2.27-3.6 4.32-1.62 2.82-7.79 3.35-9.06-.22a7.42 7.42 0 010-3.41c.44-3.23-.1-6.77-2.26-9.21-3.06-3.45-8.21-3.78-12.78-4.35s-9.85-2.33-11.15-6.75c-.95-3.19.48-7.07-1.55-9.7a7.88 7.88 0 00-3.53-2.26c-3.39-1.31-7.19-2-10.65-.92-6.08 2-9.75 9.12-16.07 10a4.91 4.91 0 01-2.84-.33c-2.4-1.2-2.5-4.66-4.34-6.6-2.89-3.06-8.37-1.09-11.91-3.36-2.32-1.49-3.2-4.38-3.85-7.05-1.24-5.19-2.25-10.62-1.03-15.8zM896.2 523.9c-4.36 5.89-9.34 11.34-13.2 17.57s-6.59 13.5-5.78 20.78c4-4.1 5.82-9.76 8.34-14.9 4.26-8.7 10.64-16.08 16-24.08 1-1.53 7.61-10.35 4.28-10.77-2.74-.35-8.15 9.39-9.64 11.4z" opacity=".1"/></symbol><symbol viewBox="0 0 999 797.25" id="svg-graphic--register" xmlns="http://www.w3.org/2000/svg"><path d="M321.21 31.27C351.99 3.84 400.32-1.73 444.3.43c138.16 6.87 262.87 73.56 370.74 149 39.05 27.31 77.5 56.74 102.85 94.35 51.6 76.57 36.3 182.63-35.46 245.7-24.41 21.46-54 37.91-84.39 52.5-54 25.93-112.31 46.74-173.62 52.67-43.73 4.22-88 .79-131.46-5.11-121.46-16.46-240.65-52.91-340.56-115.19-43.82-27.33-85.13-61.3-103.19-105.52s-6.5-100.2 38.29-126.4c18.51-10.82 40.64-15.71 62.3-20.3 31.89-6.76 64.29-13.42 93.06-27.15 29.72-14.19 64.92-41.63 59-73-6.36-33.72-11.36-63.35 19.35-90.71z" opacity=".1"/><circle cx="174.08" cy="129.4" r="31.5" opacity=".1"/><circle cx="108.09" cy="54.4" r="19.5" opacity=".1"/><circle cx="925.57" cy="114.4" r="12" opacity=".1"/><ellipse cx="689.92" cy="788.85" rx="84.24" ry="8.4" opacity=".1"/><path d="M214 487.31l-.37 19.95-2.96 161.71-25.34 59.34-87.33 1V496.5l91.14-7.22 24.86-1.97z"/><path opacity=".1" d="M214 487.31l-.37 19.95-2.96 161.71-25.34 59.34-87.33 1V496.5l91.14-7.22 24.86-1.97z"/><path d="M214 487.31l-.37 19.95-2.96 161.71-25.34 59.34L192 507.64l-.02-.14-2.84-18.22 24.86-1.97z"/><path opacity=".1" d="M189.14 489.28l24.86-1.97-.37 19.95-21.65.24L98 508.55V496.5l91.14-7.22z"/><path d="M999 496.5v231.47h-20.33l-81.34-59.33V489.97l72.67-6.83 4.46 2.05 4.21 1.94L999 496.5z"/><path opacity=".1" d="M978.67 485.19H999v242.78h-20.33z"/><path opacity=".1" d="M999 485.19v13.31l-20.33.23-81.34.9v-9.66l72.67-6.83 4.46 2.05 4.21 1.94v-1.94H999z"/><path d="M999 477.64v18.86L0 507.64v-24l94-19 818-6 87 19z"/><path opacity=".1" d="M999 477.64v18.86L0 507.64v-24l999-6z"/><rect x="365.5" y="194.97" width="349.92" height="271.69" rx="22.82" ry="22.82"/><path d="M393.66 219.48h294.12v221.63H393.66z"/><circle cx="382.18" cy="330.29" r="4.82"/><circle cx="700.81" cy="330.81" r="7.95"/><path d="M572.43 331.15l-37.61-22.86a5.14 5.14 0 00-7.63 4.48v44.46a5.14 5.14 0 007.63 4.48l37.61-21.58a5.15 5.15 0 000-8.98zm28.28 3.85a53 53 0 10-53 53 53 53 0 0053-53zm-95.74 0a42.74 42.74 0 1142.74 42.74A42.73 42.73 0 01504.97 335z"/><path d="M803.88 509.14a12.5 12.5 0 00-1.13-3.52c.76-2.59 1.25-4.18 1.25-4.18s0-.38-.12-1a15.35 15.35 0 00-15.55-12.88c-6 .11-17.38.51-30 1.93.72-5.05 1.58-11.09 2.48-17.31l1.65.18c.38 0 .78 0 1.18.06h.53a5.44 5.44 0 003.66-1.12 2.16 2.16 0 00-.67-3.54 8.92 8.92 0 007.83-3.28 7 7 0 000-8.14c-2.11-3-6.58-5-6.82-8.53-.13-2 1.21-3.8 2.26-5.57a23.27 23.27 0 00-3.67-27.95 54.76 54.76 0 00-4.44-3.95c-2.2-8.08-4.5-15.3-5.18-15.53-.88-.29-2.39-2.19-3.83-3.82a18.4 18.4 0 00-.07-4.13c-1.06-7-8-12-11.82-18.18s-4.51-13.75-3.53-20.83 3.45-13.93 5.46-20.84c1.5-5.13 2.75-10.58 1.07-15.67-1.19-3.63-3.78-6.77-6.45-9.72-6.41-7.09-13.8-13.73-22.92-18a45.55 45.55 0 00-20.29-4.34h-.07l-1.1.06-.78.05-.78.08-.83.08c-.85.11-1.69.24-2.53.41a87.31 87.31 0 00-18.55-2.08h-.81a9.5 9.5 0 00-5.3 1.25c-2.22 1.55-2.5 4.33-3.17 6.75a18.73 18.73 0 01-7.2 10c-2.39 1.72-5.2 3-7.48 4.8s-4.06 4.5-3.45 7.16c.51 2.23 2.59 3.89 5 4.9-.29.36-.59.71-.87 1.08.47.19 1 .36 1.43.5 3 .89 6.23 1 9.27 1.81a20.31 20.31 0 012.46.83 35.12 35.12 0 00-4.11 16.52 35.59 35.59 0 0018.62 31.22v1c.31 10.44-.48 23.14-5.82 25.29s-10.45 4.58-13.6 6.15l-1 .53c-.83-.38-1.66-.78-2.47-1.2 0 0-4.25-.5-3.51 2.74 0 0-12.85-2-19.9 3.49s-18.62 16.95-20.89 19.94-19.82 9.53-19.82 9.53 5.53-7.73 3.14-17.2c0 0-2.64-11.42-1.38-16s4.53-21.58 4.53-21.58.46-17.94-9.33-26.17-16.6-15-12.82-7a111.46 111.46 0 005.54 10.71s-23.41 5.56-15.1 14.24 10.57 8.69 10.57 8.69-2.77 21.43-3.28 25.42-5 34.39-5 34.39-.25 14.46 2.27 16.7c0 0 1.65 9.31 12.08 9 0 0 19.88-.5 25.42-2.74s24.66-14.21 26.68-13.46a1.15 1.15 0 01.39.26 2.83 2.83 0 01.3.3c-2 4.43-6.74 19.47-4.72 26.86 0 0-1.76 20.93 8.81 27.66 0 0 15.35 25.92 9.56 39.87-.46 1.13-.87 2.17-1.25 3.18-8.79-7.29-22.2-14-42.68-17.71-2.09-.38-4.17-.84-6.23-1.34-5.82-1.41-21.83-2.7-29.45 22.61a111.36 111.36 0 01-6.76 17.12c-3 6.07-6.33 14.77-6.4 23.4-.17 12.1 6.08 24.09 28.76 28.49.25 9 1.28 19.72 4.36 27.43 6.29 15.7 16.36 41.12 16.36 41.12s12.08 25.92 12.84 36.38c.49 6.85 1.21 15.83.71 22 0 .38-.06.74-.1 1.1a26.52 26.52 0 01-3.38 3.07c-1.76 1-7.55 7.23-7.55 8.72a26.64 26.64 0 00.38 4.26c-2.74 2.39-4.24 5-4.24 7.6 0 13.52 38.37 24.48 85.7 24.48s85.69-11 85.69-24.48c0-12.34-32-22.54-73.58-24.22 8.67-3.46 16.37-7.09 19.56-10a4.68 4.68 0 001.51-2.06l-8.05-18.69s-.63.14-1.56.41l-.56-.84c-3.58-5.45-10.47-16.31-10.47-19.26 0-1.09-1.82-8.06-4.46-17.61v-30.65c26.26 4 60.1-1.44 60.1-1.44l.15-.08h.66v-.36c4.55-2.52 27.31-15.85 34.06-33.53 2-5.16-.49-12.55-5.44-20.45 3.46-8.59 12-30.78 11.15-39.63 0-.47-.06-1-.06-1.52a26.12 26.12 0 00.1-2.72c1-13 9-36.75 9-36.75s-.05-.41-.15-1.01zm-170-57.76c1.82 3.2 3.77 7.29 4.54 8.95s-2.66-4.9-4.49-8.95zm1.9 280.1l-.19.07v-1a59.38 59.38 0 01.19-7.82 9.16 9.16 0 00-.86-4.06 96 96 0 01-6.13-24.13c-1-8.72-1.83-18.23-1.31-20.65.78-3.71 1.42-31.81.45-45.66l15.48 3.48 18 36.7s11.58 17.92 15.17 32.06v14.16a34.6 34.6 0 01-5.41 11.74c-2.39 3.27-4.72 6.58-6.88 10-.66 1.06-1.39 2.15-2.12 3.17-.24 0-12.07.69-14.08 2.91-1.24 1.37-3.4 3.53-3.76 5.7l-.51.08c-2.32-6.91-7.99-16.75-7.99-16.75z"/><path d="M711.93 718.63l-4 13-17 14.75-25 7.18s-11.75-6.43-7.75-7.68c1.11-.35 2.43-1.62 3.77-3.28-1.4 5.1 9.73-1.47 9.73-1.47s28.75-20.5 31.75-22.75a22.61 22.61 0 016.4-2.93c1.25 1.95 2.1 3.18 2.1 3.18z" opacity=".1"/><path d="M711.93 718.63l-4 13-17 14.75-25 7.18s-11.75-6.43-7.75-7.68c1.11-.35 2.43-1.62 3.77-3.28a50 50 0 003.34-4.82c2.14-3.44 4.46-6.76 6.83-10a36 36 0 006.31-16.61c1.75-13.75-16-41.5-16-41.5l-32.25-66.25 45 5.5s24.25 83.25 24.25 87.25c0 3 6.84 13.85 10.4 19.32 1.25 1.91 2.1 3.14 2.1 3.14z"/><ellipse cx="686.97" cy="771.05" rx="85.12" ry="24.55"/><path d="M719.93 734.63a4.8 4.8 0 01-1.5 2.07c-6.18 5.67-29.29 14.1-43.57 18.68a101.11 101.11 0 01-11.43 3.25c-3.5.25-10.75-2-15.75-5.07s-.5-7.43 1.52-9.68 14-2.92 14-2.92c-5.75 9.57 8.49 1.17 8.49 1.17s28.75-20.5 31.75-22.75 8.5-3.5 8.5-3.5z"/><path d="M719.93 734.63a4.8 4.8 0 01-1.5 2.07c-6.18 5.67-29.29 14.1-43.57 18.68a101.11 101.11 0 01-11.43 3.25c-3.5.25-10.75-2-15.75-5.07s-.5-7.43 1.52-9.68 14-2.92 14-2.92c-5.75 9.57 8.49 1.17 8.49 1.17s28.75-20.5 31.75-22.75 8.5-3.5 8.5-3.5z" opacity=".3"/><path d="M718.43 736.72c-6.18 5.67-29.29 14.1-43.57 18.68 12.94-10.96 34.64-16.69 43.57-18.68z" opacity=".1"/><ellipse cx="686.97" cy="763.14" rx="17.03" ry="4.91" opacity=".1"/><path d="M677.5 633.64H695v129.5h-17.5z"/><path d="M695 640.06v15c-3.5-1.08-11.49-5.63-17.5-9.21v-12.22h3.65z" opacity=".1"/><path d="M653.77 577.26s57.78-14.87 72.16-26 70.85 41.24 63.39 61-34.62 34.07-34.62 34.07-75.11 12.22-87.9-13.27-13.03-55.8-13.03-55.8z"/><path d="M653.77 577.26s57.78-14.87 72.16-26 70.85 41.24 63.39 61-34.62 34.07-34.62 34.07-75.11 12.22-87.9-13.27-13.03-55.8-13.03-55.8z" opacity=".1"/><path d="M648.77 571.26s57.78-14.87 72.16-26 70.85 41.24 63.39 61-34.62 34.07-34.62 34.07-75.11 12.22-87.9-13.27-13.03-55.8-13.03-55.8zM595.18 434.9l-6.25-2.27s5.5-7.75 3.13-17.25c0 0-2.63-11.46-1.38-16.1s4.5-21.65 4.5-21.65.46-18-9.27-26.25-16.48-15-12.73-7a111.4 111.4 0 005.5 10.75s-23.25 5.57-15 14.29 10.5 8.71 10.5 8.71-2.75 21.5-3.25 25.5-5 34.5-5 34.5-.25 14.5 2.25 16.75a11.31 11.31 0 0012 9c1.78-.03 23-23.48 15-28.98zm151-46v14l-14.5 4.73-24.7 18.18-6.55 4.82-29.25-11.75-18.5-19.5s.9-.49 2.46-1.3l1-.53c3.13-1.57 8.06-4 13.51-6.17s6.09-14.89 5.78-25.37v-1c-.25-7.35-1-13.36-1-13.36s3.05-.58 7.49-1.24c12.31-1.83 35.28-4.3 33.26 3.24a17.37 17.37 0 000 7.79c.06.28.12.57.19.85 2.08 9.09 8.52 18.61 8.52 18.61l20 7.2.56.2z"/><path d="M746.18 393.15v-4.25a14 14 0 014.75 0c1.75.5 5.07 5.75 6.57 6.25s10.68 34.75 9.68 37.75-10.45 70.73-10.45 70.73l-19.05 21-3.75-57.75 12.25-34.25zM647.43 550.4s-17.41 3.75-15.2 9.25 11.95 5.75 11.95 5.75zm24.25-111.05l-13.25 28.55-15.75 11.5-2.75-17.77s-5.32-11.75-7.61-13.74a1.15 1.15 0 00-.39-.26c-2-.75-21 11.25-26.5 13.5s-25.25 2.75-25.25 2.75l8.75-31.25s17.5-6.5 19.75-9.5 13.75-14.5 20.75-20 19.77-3.5 19.77-3.5l.2.08 3.28 1.42 9.5 23.25zm-34.75 284.8a59.64 59.64 0 00-.19 7.84c.07 2.79.19 5.16.19 5.16l-5.75 12s-19.75 6.5-16.5 3.75c1.13-.95 1.71-3.42 2-6.69.49-6.18-.22-15.19-.71-22.06-.75-10.5-12.75-36.5-12.75-36.5s-10-25.5-16.25-41.25-4-44.25-4-44.25 1-21.5 5.5-28 22-8.75 22-8.75l8.21 27.23s6.75 25.5 9.25 29.25 1.75 48.5.75 53.25c-.51 2.43.35 12 1.31 20.72a97.31 97.31 0 006.08 24.2 9.24 9.24 0 01.86 4.1z"/><path d="M636.93 737.15l-5.75 12s-19.75 6.5-16.5 3.75c1.13-.95 1.71-3.42 2-6.69.71-.71 1.47-1.49 2.25-2.29a50.49 50.49 0 0117.85-11.93c.03 2.79.15 5.16.15 5.16z" opacity=".1"/><path d="M645.95 755.01a.59.59 0 010 .14c-1 4.75-17.5 11.25-17.5 11.25s-10.5 1.75-16.5 3.25a4.15 4.15 0 01-1.41.13c-4.63-.35-4.84-9.26-4.84-10.63s5.75-7.75 7.5-8.75a53.63 53.63 0 005.56-5.33 51.6 51.6 0 0118.22-12.17s9.77 17.18 8.97 22.11z"/><path d="M645.95 755.01a.59.59 0 010 .14c-1 4.75-17.5 11.25-17.5 11.25s-10.5 1.75-16.5 3.25a4.15 4.15 0 01-1.41.13c-4.63-.35-4.84-9.26-4.84-10.63s5.75-7.75 7.5-8.75a53 53 0 005.64-5.41 50.57 50.57 0 0117.86-12l.28-.11s9.77 17.2 8.97 22.13z" opacity=".3"/><path d="M645.95 755.01a.59.59 0 010 .14c-1 4.75-17.5 11.25-17.5 11.25s-10.5 1.75-16.5 3.25a4.15 4.15 0 01-1.41.13c5.44-3.73 18.63-12.68 20.41-12.88s10.55-2.72 15-1.89zm69.46-392.72c-6.18 5.09-11.86 4.36-20.49 4.36-6.24 0-14.35 2.19-19.46-.62-.21-7.81-1-14.38-1-14.38s43.5-8.25 40.75 2a18.18 18.18 0 00.2 8.64z" opacity=".1"/><path d="M728.43 333.69a35.75 35.75 0 01-35.75 35.75c-.92 0-1.84 0-2.74-.1a35.75 35.75 0 1138.5-35.65z"/><path d="M662.18 424.4l9.5 15-13.25 28.55-15.75 11.5-2.75-17.82s-5.32-11.75-7.61-13.74c.66-1.61 1.11-2.35 1.11-1.76 0 2.5 6.15 13.75 6.15 13.75 19-6.5 13.1-31.75 13.1-31.75s-2.36-22.5-3.28-28.42l3.28 1.42zm84-35.5v14l-14.5 4.73-24.7 18.18-6.55 4.82-29.25-11.75-18.5-19.5s.9-.49 2.46-1.3l1-.53c12.87 5.85 26.8 8 36.75 8.77a111 111 0 0013.76.31c37.67-6 38.79-15.1 37.85-18.33z" opacity=".1"/><path d="M756.93 615.63a280.29 280.29 0 01-29 12.25c-17.25 6.25-55.25-2-60-3.25s-41.25-15.75-55.25-21.25-17.5-1-20.75-1.5-5.5-6.75-6-8.5 9-17 14.25-24.75 21-6.25 23.25-6.75 18 0 18 0-1-5 4.75-19-9.5-40-9.5-40c-10.5-6.75-8.75-27.75-8.75-27.75-2.5-9.25 5.5-30.5 5.5-28s6.15 13.75 6.15 13.75c19-6.5 13.1-31.75 13.1-31.75s-2.75-26.25-3.48-29.5 3.48-2.75 3.48-2.75q1.22.63 2.46 1.2c13.16 6.2 27.56 8.46 37.78 9.24a111 111 0 0013.76.31c45.67-7.37 37.58-19.12 37.28-19.54l2.22.79c16.5 12 11.5 51.75 11.5 51.75l-6.18 29.67-4.59 22.1s16.25 98.5 17.75 103.5-7.73 19.73-7.73 19.73z"/><path d="M635.18 570.63c-1 .75-12.25 24-4 30.5s4-30.5 4-30.5zm8 3.27c.25.75 23.5 37.75 36.25 40.75zm56.01-292.79l-3.72.79a25.07 25.07 0 013.14-.93zm56.02 159.52l-7 29.65a36.22 36.22 0 01-9.72-6.51c-2.23-2.12-4.23-4.55-7.1-5.94-3.69-1.79-8.14-1.55-12.33-1.7a59.32 59.32 0 01-15.42-2.64 10.88 10.88 0 01-4-1.94c-2.38-2.1-2.22-5.49-2-8.45a129.57 129.57 0 00.15-17.29c-.06-1.08-.14-2.16-.23-3.24-.4-4.83-1.7-10.43-6.64-12.5-2.54-1-5.57-.92-8-2.13a6.61 6.61 0 01-1-.62c-3.6-2.52-3.93-7.57-3.79-11.82q.32-8.76.61-17.53a50.94 50.94 0 00-.19-8.65 19.21 19.21 0 00-1.56-5.52c-2.17-4.64-6.69-8.51-7.5-13.41a5.43 5.43 0 01-.09-.69c-.42-4.38 2.34-8.46 3.31-12.77 1.94-8.67-4.58-18.17-14.17-20.66-3-.78-6.22-.93-9.21-1.82a14.79 14.79 0 01-1.41-.5c7.24-9.66 19.65-16 33.74-16 22.33 0 40.44 16 40.44 35.75 0 11.2-5.83 21.19-14.94 27.75.06.28.13.57.21.85 2.35 9.09 9.64 18.61 9.64 18.61l22.64 7.2 2.52.8c18.7 11.99 13.04 51.72 13.04 51.72zm12.29 28.72c-.22 0-.43-.05-.64-.09a1.33 1.33 0 01.64.09z" opacity=".1"/><path d="M690.18 280.12a86 86 0 00-19.08-2.23c-2.09 0-4.33.11-6 1.26-2.21 1.55-2.49 4.35-3.15 6.77a18.78 18.78 0 01-7.15 10c-2.37 1.73-5.16 3-7.43 4.82s-4 4.52-3.43 7.18 3.56 4.71 6.56 5.56 6.19 1 9.21 1.82c9.59 2.49 16.1 12 14.16 20.65-1 4.31-3.73 8.39-3.31 12.77.49 5.23 5.32 9.26 7.59 14.11 2.07 4.42 1.93 9.38 1.77 14.16l-.61 17.54c-.16 4.62.24 10.18 4.8 12.44 2.44 1.2 5.48 1.07 8 2.13 4.94 2.06 6.24 7.67 6.64 12.49a129.1 129.1 0 01.08 20.53c-.23 3-.39 6.35 2 8.45a10.72 10.72 0 004 1.94 59.32 59.32 0 0015.42 2.64c4.2.16 8.64-.08 12.33 1.7 2.87 1.39 4.87 3.83 7.1 5.94a39.24 39.24 0 0023.18 10.15c1.85.16 3.95.12 5.24-1.07s.53-3.76-1.31-3.61a8.89 8.89 0 008.42-3.22 7.1 7.1 0 000-8.17c-2.09-3-6.53-5-6.77-8.56-.13-2 1.2-3.81 2.24-5.59a23.51 23.51 0 00-3.64-28c-4.69-4.85-11.72-8.53-13.36-14.75-1.09-4.16.56-8.53-.07-12.76-1-7-7.93-12-11.74-18.24s-4.48-13.79-3.51-20.89 3.43-14 5.43-20.9c1.49-5.15 2.72-10.62 1.06-15.73-1.19-3.63-3.75-6.78-6.41-9.75-6.37-7.11-13.7-13.77-22.76-18s-20.1-5.87-29.72-2.74"/><path d="M690.18 280.12a86 86 0 00-19.08-2.23c-2.09 0-4.33.11-6 1.26-2.21 1.55-2.49 4.35-3.15 6.77a18.78 18.78 0 01-7.15 10c-2.37 1.73-5.16 3-7.43 4.82s-4 4.52-3.43 7.18 3.56 4.71 6.56 5.56 6.19 1 9.21 1.82c9.59 2.49 16.1 12 14.16 20.65-1 4.31-3.73 8.39-3.31 12.77.49 5.23 5.32 9.26 7.59 14.11 2.07 4.42 1.93 9.38 1.77 14.16l-.61 17.54c-.16 4.62.24 10.18 4.8 12.44 2.44 1.2 5.48 1.07 8 2.13 4.94 2.06 6.24 7.67 6.64 12.49a129.1 129.1 0 01.08 20.53c-.23 3-.39 6.35 2 8.45a10.72 10.72 0 004 1.94 59.32 59.32 0 0015.42 2.64c4.2.16 8.64-.08 12.33 1.7 2.87 1.39 4.87 3.83 7.1 5.94a39.24 39.24 0 0023.18 10.15c1.85.16 3.95.12 5.24-1.07s.53-3.76-1.31-3.61a8.89 8.89 0 008.42-3.22 7.1 7.1 0 000-8.17c-2.09-3-6.53-5-6.77-8.56-.13-2 1.2-3.81 2.24-5.59a23.51 23.51 0 00-3.64-28c-4.69-4.85-11.72-8.53-13.36-14.75-1.09-4.16.56-8.53-.07-12.76-1-7-7.93-12-11.74-18.24s-4.48-13.79-3.51-20.89 3.43-14 5.43-20.9c1.49-5.15 2.72-10.62 1.06-15.73-1.19-3.63-3.75-6.78-6.41-9.75-6.37-7.11-13.7-13.77-22.76-18s-20.1-5.87-29.72-2.74M636.68 502.9s8.5 3.25 17.5-5.75-17.5 5.75-17.5 5.75z" opacity=".1"/><path d="M693.94 279.97a35.56 35.56 0 015-.63 37.93 37.93 0 00-7 .22zm50.14 182.82c-2.24-2.11-4.23-4.55-7.11-5.94-3.68-1.78-8.13-1.54-12.33-1.7a59 59 0 01-15.42-2.64 10.72 10.72 0 01-4-1.94c-2.38-2.1-2.21-5.48-2-8.45a129.1 129.1 0 00-.08-20.53c-.41-4.82-1.7-10.43-6.65-12.49-2.53-1.06-5.56-.93-8-2.13-4.56-2.26-5-7.82-4.81-12.44q.31-8.77.61-17.53c.17-4.79.3-9.75-1.77-14.17-2.27-4.85-7.1-8.87-7.59-14.11-.41-4.37 2.35-8.46 3.32-12.77 1.94-8.67-4.58-18.16-14.17-20.65-3-.78-6.22-.94-9.21-1.82s-5.89-2.78-6.51-5.5 1.15-5.36 3.42-7.19 5.06-3.09 7.44-4.82a18.71 18.71 0 007.14-10c.67-2.42 1-5.21 3.15-6.77a8 8 0 014.1-1.2c-.89 0-1.78-.05-2.66-.05-2.09 0-4.33.11-6 1.25-2.21 1.56-2.49 4.35-3.15 6.77a18.78 18.78 0 01-7.15 10c-2.37 1.73-5.16 3-7.43 4.82s-4 4.52-3.43 7.19 3.53 4.61 6.52 5.5 6.19 1 9.21 1.82c9.59 2.49 16.1 12 14.16 20.65-1 4.31-3.73 8.4-3.31 12.77.49 5.24 5.32 9.26 7.59 14.11 2.07 4.42 1.94 9.38 1.77 14.17q-.31 8.76-.61 17.53c-.16 4.62.24 10.18 4.8 12.44 2.44 1.2 5.48 1.07 8 2.13 4.94 2.06 6.24 7.67 6.64 12.49a129.1 129.1 0 01.08 20.53c-.23 3-.39 6.35 2 8.45a10.72 10.72 0 004 1.94 58.91 58.91 0 0015.42 2.64c4.2.16 8.64-.08 12.33 1.7 2.87 1.39 4.87 3.83 7.11 5.94a39.18 39.18 0 0023.17 10.15 10.71 10.71 0 003.35-.13 39.11 39.11 0 01-21.94-10.02zM588.93 432.63s-8 7.34-6.83 10.34 6.83-10.34 6.83-10.34z" opacity=".1"/><path d="M596.35 526.98c-5.77-1.41-21.68-2.71-29.25 22.68a112.32 112.32 0 01-6.71 17.17c-7.26 14.91-16.64 45.57 24.61 52.32l99 22.5s53 6.5 56.5 4 3-8 3-8-58.5 0-70-18-12-42.5-12-42.5 1.44-37.83-59-48.82c-2-.38-4.1-.85-6.15-1.35z"/><path d="M596.35 527.15c-5.77-1.41-21.68-2.71-29.25 22.69a112.32 112.32 0 01-6.71 17.17c-7.26 14.9-16.64 45.56 24.61 52.31l99 22.5s53 6.5 56.5 4 3-8 3-8-58.5 0-70-18-12-42.5-12-42.5 1.44-37.83-59-48.82c-2-.38-4.1-.87-6.15-1.35z" opacity=".1"/><path d="M803.88 501.11a15.29 15.29 0 00-15.45-12.92c-14.24.26-58.07 2.16-78.43 15.46 0 0-15.5 10-20 10s-65.5 52 25 98.5c0 0 48.5 13.8 67.5-18.6 0 0 13.5-34.8 12.5-46.85s9-44.55 9-44.55-.02-.39-.12-1.04z"/><path d="M803.88 509.87c-1.14-7-7.8-12.06-15.45-11.93-14.24.24-58.07 2-78.43 14.27 0 0-15.5 9.23-20 9.23s-65.5 48 25 90.93c0 0 48.5 12.74 67.5-17.17 0 0 13.5-32.13 12.5-43.25s9-41.12 9-41.12-.02-.36-.12-.96z" opacity=".1"/><path d="M739.5 612.14h16v34.07h-16z"/><ellipse cx="170.24" cy="470.71" rx="45.04" ry="2.89" opacity=".1"/><path d="M208.04 359.25a17.18 17.18 0 00-2.28 4.29c-.14.38-.28.8-.42 1.21a3.69 3.69 0 00-.79-.27 11.34 11.34 0 00-3.57-.31c0-.46.06-1 .07-1.46.15-5.27-.47-12.62-5.5-9.51-4.82 3-1.38 8 1.73 11.21l.8.78c-2.84 2-3.38 6.73-3.85 11.64s-4.64 10.29-7.41 13.34c-.28.31-.53.59-.78.85a10.11 10.11 0 00-8.05-2.07c-.11-.43-.24-.88-.37-1.36-2.24-8.08-6.89-22.09-12.82-25.16l.78-1c2.52-3.3 5.36-8.19 1.17-9.45s-4.57 4.25-4.34 8.37c0 .52.08 1 .12 1.46a6.17 6.17 0 00-4.38 2.14l-.65-.76c-3.4-4-9.63-10.37-11.52-5.56-1.76 4.48 3.73 10.29 7.59 13.66l.24.21c-2.59 10.53 8.69 19.13 14.81 22.85l.79.48c-8.4 9.9-13.59 28.45-13.59 28.45l23.52 4.2s15.6-13.45 13.6-26.09h.16c15.59-3.12 19.13-19.74 16.7-29.61l.28-.11a17.74 17.74 0 007.22-5.46c4.36-6.07-4.8-12.91-9.26-6.96z"/><path d="M208.04 359.25a17.18 17.18 0 00-2.28 4.29c-.14.38-.28.8-.42 1.21a3.69 3.69 0 00-.79-.27 11.34 11.34 0 00-3.57-.31c0-.46.06-1 .07-1.46.15-5.27-.47-12.62-5.5-9.51-4.82 3-1.38 8 1.73 11.21l.8.78c-2.84 2-3.38 6.73-3.85 11.64s-4.64 10.29-7.41 13.34c-.28.31-.53.59-.78.85a10.11 10.11 0 00-8.05-2.07c-.11-.43-.24-.88-.37-1.36-2.24-8.08-6.89-22.09-12.82-25.16l.78-1c2.52-3.3 5.36-8.19 1.17-9.45s-4.57 4.25-4.34 8.37c0 .52.08 1 .12 1.46a6.17 6.17 0 00-4.38 2.14l-.65-.76c-3.4-4-9.63-10.37-11.52-5.56-1.76 4.48 3.73 10.29 7.59 13.66l.24.21c-2.59 10.53 8.69 19.13 14.81 22.85l.79.48c-8.4 9.9-13.59 28.45-13.59 28.45l23.52 4.2s15.6-13.45 13.6-26.09h.16c15.59-3.12 19.13-19.74 16.7-29.61l.28-.11a17.74 17.74 0 007.22-5.46c4.36-6.07-4.8-12.91-9.26-6.96z" opacity=".1"/><path d="M161.22 366.03l-2.72 8.05s-1.53-1.08-3.46-2.78c-3.86-3.37-9.35-9.18-7.59-13.66 1.89-4.81 8.12 1.54 11.52 5.56 1.34 1.59 2.25 2.83 2.25 2.83zm5.8-4.59a38.89 38.89 0 01-2.68 3.15 42.22 42.22 0 01-.49-4.23c-.23-4.12.21-9.59 4.34-8.37s1.31 6.15-1.17 9.45zm35.48 1.27c-.08 2.65-.34 4.76-.34 4.76a34 34 0 01-3.43-3.06c-3.11-3.23-6.55-8.21-1.73-11.21 5.02-3.11 5.64 4.24 5.5 9.51zm16.24 3.47a17.74 17.74 0 01-7.24 5.45 20.18 20.18 0 01-2.42.87l-3.24-4.55a33.05 33.05 0 011.34-4.42 17.18 17.18 0 012.28-4.29c4.5-5.94 13.64.9 9.28 6.94z"/><path d="M158.94 363.2a51.63 51.63 0 012.28 2.83l-2.72 8.05s-1.53-1.08-3.46-2.78a15.75 15.75 0 013.1-7.07c.24-.37.53-.72.8-1.03zm8.08-1.76a38.89 38.89 0 01-2.68 3.15 42.22 42.22 0 01-.49-4.23 5.46 5.46 0 013.17 1.08z" opacity=".1"/><path d="M180.5 393.4l-6.84 3s-1.49-.72-3.64-2.06c-7.19-4.43-21.64-15.56-11.95-28.68s17.77 10.42 20.95 21.92c1.01 3.45 1.48 5.82 1.48 5.82z"/><path d="M198.72 364.41a5.57 5.57 0 013.77-1.7c-.08 2.65-.34 4.76-.34 4.76a34 34 0 01-3.43-3.06zm12.78 7.22a20.18 20.18 0 01-2.42.87l-3.24-4.55a33.05 33.05 0 011.34-4.42c2.11 1.24 3.65 4.27 4.32 8.1z" opacity=".1"/><path d="M194.5 401.36l-1.15.2c-22.93 3.49-7.56-8.88-7.56-8.88s1-.95 2.43-2.51c2.77-3.05 6.93-8.4 7.41-13.34.72-7.43 1.55-14.4 10.32-12.35 8.65 2.01 10.3 32.53-11.45 36.88zM150.3 458.44h43.81v11.52H150.3z"/><path d="M143.34 421h57.24v40.2h-57.24z"/><path opacity=".1" d="M149.88 458.44h43.81v11.52h-43.81z"/><path opacity=".1" d="M143.16 421.01h57.24v40.2h-57.24z"/><path d="M153.18 458.44h43.81v11.52h-43.81z"/><path d="M179.06 387.63c1 3.44 1.48 5.81 1.48 5.81l-6.84 3s-1.49-.72-3.64-2.06c2.68-3.43 5.7-6 9-6.75zm15.44 13.73l-1.15.2c-22.93 3.49-7.56-8.88-7.56-8.88s1-.95 2.43-2.51c4.28 3.46 6.09 7.29 6.28 11.19z" opacity=".1"/><path d="M157.26 423.28s12.84-46 30.85-31.8-7.33 36-7.33 36z"/><circle cx="163.74" cy="372.87" r="1.44" opacity=".1"/><circle cx="163.62" cy="379.6" r="1.44" opacity=".1"/><circle cx="205.39" cy="374.19" r="1.44" opacity=".1"/><circle cx="171.78" cy="408.64" r="1.44" opacity=".1"/><circle cx="202.39" cy="385.36" r="1.44" opacity=".1"/><circle cx="187.51" cy="400.24" r="1.44" opacity=".1"/><circle cx="168.66" cy="375.75" r="1.44" opacity=".1"/><circle cx="201.43" cy="378.52" r="1.44" opacity=".1"/><circle cx="196.51" cy="389.68" r="1.44" opacity=".1"/><circle cx="181.38" cy="407.56" r="1.44" opacity=".1"/><circle cx="178.26" cy="400.48" r="1.44" opacity=".1"/><circle cx="170.82" cy="384.52" r="1.44" opacity=".1"/><path opacity=".1" d="M153.18 458.44h43.81v4.21h-43.81z"/><path d="M146.22 421h57.24v40.2h-57.24z"/><circle cx="183.3" cy="414.04" r="1.44" opacity=".1"/><circle cx="174.66" cy="415.84" r="1.44" opacity=".1"/><path d="M311.89 574.63s7.13 9.33-3.29 23.41-19 26-15.56 34.76c0 0 15.74-26.16 28.55-26.52s4.39-15.91-9.7-31.65z"/><path d="M311.89 574.63a11.49 11.49 0 011.46 2.92c12.49 14.68 19.15 28.38 7.14 28.73-11.19.35-24.61 20.35-27.83 25.35.11.39.24.78.38 1.15 0 0 15.74-26.16 28.55-26.52s4.39-15.89-9.7-31.63z" opacity=".1"/><path d="M325.15 586.53c0 3.28-.37 5.94-.82 5.94s-.82-2.66-.82-5.94.46-1.74.91-1.74.73-1.55.73 1.74z"/><path d="M329.7 590.45c-2.88 1.57-5.39 2.52-5.61 2.12s1.94-2 4.83-3.57 1.74-.43 2 0 1.67-.12-1.22 1.45zM274.2 574.63s-7.13 9.33 3.29 23.41 19 26 15.55 34.76c0 0-15.73-26.16-28.54-26.52s-4.39-15.91 9.7-31.65z"/><path d="M274.2 574.63a11.49 11.49 0 00-1.46 2.92c-12.49 14.68-19.15 28.38-7.14 28.73 11.19.35 24.61 20.35 27.83 25.35a11.1 11.1 0 01-.39 1.15s-15.73-26.15-28.54-26.49-4.39-15.92 9.7-31.66z" opacity=".1"/><path d="M260.94 586.53c0 3.28.37 5.94.82 5.94s.82-2.66.82-5.94-.46-1.74-.91-1.74-.73-1.55-.73 1.74z"/><path d="M256.39 590.45c2.88 1.57 5.39 2.52 5.61 2.12s-1.94-2-4.83-3.57-1.74-.43-2 0-1.67-.12 1.22 1.45z"/><ellipse cx="293.04" cy="692.74" rx="74.6" ry="11.45" opacity=".1"/><path d="M331.44 620.24l-.36 2.91-.5 4.12-.2 1.71-.51 4.12-.21 1.72-.5 4.11-5.66 46.8c-.51 4.18-7.34 7.43-15.57 7.43h-29.72c-8.24 0-15-3.25-15.56-7.43l-5.72-46.8-.5-4.11-.21-1.72-.51-4.12-.2-1.71-.5-4.12-.36-2.91c-.29-2.36 3.4-4.36 8.07-4.36h60.66c4.65 0 8.35 2 8.06 4.36z"/><path d="M331.08 623.15l-.5 4.11h-75.07l-.5-4.11h76.07zm-.7 5.83l-.5 4.12h-73.66l-.51-4.12h74.67zm-.72 5.83l-.5 4.12h-72.23l-.5-4.12h73.23z"/></symbol><symbol viewBox="0 0 1140.56 787.27" id="svg-graphic--undraw_maker_launch_crhe" xmlns="http://www.w3.org/2000/svg"><path d="M8.76 414.46c20.16-32.93 65.75-27.19 98.08-10s64.59 42.85 100.17 37.92c30-4.16 54.6-30.32 67.89-60.5s17.19-64.21 20.93-97.54q7.05-62.81 14.09-125.7c1.72-15.33 3.75-31.51 12.37-43.64 11.39-16 32.27-20.92 50.13-16.11s33.09 17.71 46.12 32.1c41.74 46.08 65.39 108.37 101.88 159.65 7.43 10.44 15.82 20.76 26.92 25.8 16 7.25 34.37 2.12 50-5.95 51-26.29 85.26-79.94 118.93-130 16.38-24.33 36.35-50.35 63.6-53 28.67-2.85 53.56 21.58 70.41 47.45 54.08 83.24 65.67 196.88 131 269.48 8.11 9 17.06 17.32 27.37 22.91a70.65 70.65 0 0010.6 4.65c57 19.73 76 98.93 33.84 145.89-.91 1-1.84 2-2.78 3-6.26 6.61-13.35 12.86-21.81 14.83-7.87 1.82-16-.28-23.8-2.55-49.86-14.55-99.12-36.79-150.67-35.71-50.16 1-97.74 24.17-147.34 32.51-33.35 5.61-67.28 4.49-101 3.28q-168.46-6.06-336.85-14.1c-55.72-2.56-111.46-5-167.17-7.85-42.92-2.23-70.26-7.14-75.24-56.95-4.36-43.62-43.52-97.63-17.67-139.87z" opacity=".1"/><ellipse cx="789.9" cy="749.54" rx="269.99" ry="37.73"/><path d="M148.74 586.77s13.2-3 21.85 5.87c0 0-5.56 5-18.64-.54zm-1.46-.13s-7.82 11.08-2.86 22.45c0 0 6.76-3.25 6.57-17.45zm-8.8-16.7s4.69-10.15 27 2.12c0 0-2.4 6.78-11.88 6.88s-12.32-4.01-15.12-9zm-1.42-.62s-11.17-.52-10.54 24.92c0 0 7.13 1 11.58-7.38s2.09-12.71-1.04-17.54zm-7.78-19.8s5-17.68 28.47-6.88c0 0-4.1 16.19-25.8 12.64zm-8.71-25.34s10.58-18.24 32.49-3.44c0 0-6.19 16.87-30.29 9.55zm-4.14-24.4s12.63-16.95 34.36-2.31c0 0-12.06 14.94-34.09 6.4zm-3.74-23.72s12.76-17.66 33.59-3.15c0 0-14.68 15.83-33.33 7.07zm-.18-21.26s13.15-22.53 32.65-9.17c0 0-14.42 19.57-32.37 13.26zm1.77-24.98s14-22.4 33.09-7.18c0 0-17.1 19.75-32.87 11.15zm3.63-22.46s17-21.31 33.55-14.37c0 0-17.68 22.6-34 19.76zm5-21.4s19.54-26 32.37-18.62c0 0-14.31 20.09-33.58 23.35zm7.62-24.94s17.17-21.32 31-17.24c0 0-14.45 21.89-33.1 23.68zm6.85-23.31s19.18-20.6 28.31-17.82c0 0-13.35 22.36-28.92 22.15zm6.77-21.56s16.09-24.15 25.82-23c0 0-9.31 21.19-25.66 25.33zm6.99-28.91s14.39-18.66 22.81-19.18c0 0-10.71 24.34-23.07 25zm4-19.21l12.58-37.69s3 33.1-14 44.62zm3.39-40.86s.44-30.79-1.33-33.17c0 0 12.47 24.74 2.14 46.71zm-29.89 321.98s-16.26-8.62-24.77 15.73c0 0 14.5 8.28 27-9.81zM120 523.23s-19.72-7.45-27.35 17.88c0 0 15.47 9.15 29.51-11.76zm-4.36-21.92s-14.79-15.11-34.36 2.33c0 0 13.94 13.19 34.63 1.79zm-3.42-25.21s-15-15.81-33.71 1.36c0 0 16.66 13.73 34 2.55zm.33-20.7s-11.36-23.47-31.83-11.67c0 0 12.86 20.63 31.24 15.74z"/><path d="M115.45 429.64s-11.33-23.9-32.06-11.07c0 0 14.66 21.61 31.34 14.93zm4.53-22.3s-5.64-26.65-23.55-27.87c0 0 5.68 28.13 21.51 32.88zm3.39-21.36s-3.67-32.31-18.46-32.46c0 0 2.15 24.57 17.11 37.15zm8.63-25.99s-6.21-26.66-20.47-29c0 0 3.5 26 19.53 35.72zm7.06-22.2s-2-28.07-10.9-31.62c0 0-3.61 25.78 8.65 35.38zm5.73-21.99s-3.15-28.85-12.31-32.32c0 0-1.5 23.09 11.1 34.3zm7.75-26.34s-1.64-23.51-8.35-28.61c0 0-4.58 26.19 5.35 33.56z"/><path d="M154.28 266.92l-8.8-38.74s-6.23 32.64 9.57 45.78zm-1.37-39s-17.63-25.28-17.49-28.22c0 0 3.54 27.48 24.41 39.89zm1.37-7.89s-17.46-36.39-24.43-39c0 0 22.09 9.43 25.61 37.8z"/><path d="M150.82 293.25l-1-.25c9.85-42 11.24-68.48 3.9-74.56l.68-.82c7.74 6.44 6.52 32.6-3.58 75.63z"/><path d="M122.54 391.91l-1.55-.43c1.09-3.86 2.27-7.79 3.53-11.66 11-33.72 20.14-65 25.75-88.94l1.27-.75c-5.62 24-14.51 56.43-25.49 90.18-1.25 3.86-2.43 7.76-3.51 11.6z"/><path d="M169.59 616.31c-.22-.21-22.22-21.87-39.12-60.24a232.37 232.37 0 01-18.61-70.77c-3-30.53 1.1-65.13 10-96.9l1.28 1.32c-20 71.31-6.19 130.34 9.23 165.4 16.73 38 38.48 59.45 38.7 59.66zM193.81 502.1s8-1.83 13.22 3.55c0 0-3.37 3-11.27-.33zm-.87-.07s-4.72 6.7-1.72 13.57c0 0 4.08-2 4-10.55zm-5.32-10.11s2.83-6.13 16.3 1.29c0 0-1.45 4.09-7.18 4.15s-7.41-2.42-9.12-5.44zm-.86-.37s-6.76-.31-6.38 15.06c0 0 4.31.6 7-4.46s1.27-7.68-.62-10.6zm-4.73-11.97s3.07-10.69 17.23-4.18c0 0-2.47 9.79-15.59 7.64zm-5.24-15.32s6.39-11 19.64-2.08c0 0-3.75 10.2-18.31 5.77zm-2.51-14.75s7.64-10.25 20.77-1.4c0 0-7.28 9-20.6 3.87zm-2.26-14.34s7.72-10.68 20.31-1.9c0 0-8.87 9.57-20.15 4.27zm-.1-12.86s8-13.61 19.73-5.54c0 0-8.72 11.83-19.57 8zm1.04-15.09s8.49-13.55 20-4.38c0 0-10.34 11.94-19.88 6.74zm2.22-13.58s10.27-12.88 20.28-8.68c0 0-10.69 13.66-20.53 11.94zm3.02-12.94s11.81-15.71 19.57-11.26c0 0-8.65 12.15-20.3 14.12zm4.61-15.06s10.38-12.89 18.76-10.42c0 0-8.73 13.23-20 14.31zm4.14-14.11s11.59-12.45 17.11-10.77c0 0-8.06 13.51-17.48 13.39zm4.09-13.03s9.73-14.6 15.61-13.92c0 0-5.62 12.81-15.51 15.32zm4.24-17.48s8.7-11.28 13.79-11.6c0 0-6.48 14.72-13.95 15.09zm2.41-11.62l7.59-22.76s1.8 20-8.49 27zm2.05-24.7s.26-18.61-.81-20.05c0 0 7.54 14.95 1.29 28.24zm-18.08 194.66s-9.82-5.22-15 9.5c0 0 8.77 5 16.33-5.92zm-5.21-15.72s-11.93-4.5-16.54 10.81c0 0 9.35 5.53 17.84-7.1zm-2.65-13.21s-8.93-9.13-20.77 1.4c0 0 8.43 8 20.94 1.08zm-2.06-15.24s-9.07-9.55-20.38.83c0 0 10.07 8.29 20.54 1.54zm.2-12.55s-6.87-14.19-19.25-7.06c0 0 7.78 12.47 18.89 9.52z"/><path d="M173.69 407.09s-6.85-14.45-19.41-6.69c0 0 8.86 13.07 18.95 9zm2.74-13.45s-3.41-16.12-14.24-16.85c0 0 3.43 17 13 19.87zm2.05-12.93s-2.2-19.53-11.2-19.63c0 0 1.3 14.86 10.34 22.47zm5.21-15.71s-3.75-16.12-12.37-17.54c0 0 2.12 15.71 11.81 21.59zm4.27-13.42s-1.23-17-6.58-19.12c0 0-2.19 15.59 5.22 21.39zm3.47-13.3s-1.9-17.44-7.44-19.54c0 0-.91 14 6.71 20.74zm4.68-15.92s-1-14.21-5-17.3c0 0-2.77 15.84 3.23 20.29z"/><path d="M197.19 308.73l-5.32-23.42s-3.77 19.74 5.78 27.68zm-.85-23.57s-10.65-15.27-10.57-17.06c0 0 2.13 16.61 14.75 24.11zm.8-4.78s-10.56-22-14.77-23.55c0 0 13.36 5.7 15.48 22.86z"/><path d="M195.07 324.64l-.63-.15c6-25.39 6.8-41.4 2.36-45.07l.41-.5c4.71 3.9 3.97 19.72-2.14 45.72z"/><path d="M177.98 384.3l-.94-.27c.66-2.33 1.38-4.7 2.14-7 6.63-20.39 12.17-39.3 15.56-53.77l.77-.46c-3.4 14.5-8.77 34.12-15.41 54.53-.76 2.31-1.47 4.64-2.12 6.97z"/><path d="M206.42 519.96c-.13-.13-13.43-13.22-23.65-36.42a140.72 140.72 0 01-11.25-42.78c-1.83-18.46.67-39.38 6.06-58.59l.77.8c-12.09 43.11-3.74 78.8 5.58 100 10.12 23 23.26 35.93 23.4 36.06z"/><path d="M236.5 569.96a38.24 38.24 0 00-7.5 2.14c-53.94 21.54-53.04 162.54-53.04 162.54h-15.88s-5-60.51-26.79-146.84c-19.63-77.67 60.88-147.28 77.23-160.48 1.84-1.47 2.86-2.25 2.86-2.25 81.09 29.8 23.12 144.89 23.12 144.89z"/><path d="M219.28 427.52c-1.87-.86-3.8-1.68-5.85-2.43 0 0-1 .78-2.86 2.25-16.35 13.2-96.86 82.81-77.23 160.48 21.79 86.33 26.74 146.82 26.74 146.82h8.93s-4.95-60.51-26.79-146.84c-19.55-77.31 60.18-146.66 77.06-160.28z" opacity=".2"/><path d="M504.04 587.82c-21.84 86.33-26.76 146.82-26.76 146.82h-15.91s1-147.36-56.73-163.81a31.53 31.53 0 00-3.81-.89s-58-115.09 23.12-144.87c0 0 .82.61 2.3 1.8 15.03 12.03 97.64 82.38 77.79 160.95z"/><path d="M236.5 569.96a38.24 38.24 0 00-7.5 2.14 979.21 979.21 0 01-18.48-144.76c1.84-1.47 2.86-2.25 2.86-2.25 81.09 29.78 23.12 144.87 23.12 144.87zm189.78-143.07a901 901 0 01-21.61 144 31.53 31.53 0 00-3.81-.89s-58-115.09 23.12-144.87c-.03-.04.79.57 2.3 1.76z" opacity=".1"/><path d="M396.59 591.78q-8.4 33.14-19.69 68s-35.72 37.21-122 0c0 0-8.62-24.3-18.1-65.61-20.87-90.83-45.9-263.92 7.43-441.71A661.75 661.75 0 01311.41 0s45.56 52.31 79 152.43 54.72 248.07 6.18 439.35z"/><circle cx="318.66" cy="293.6" r="71.63"/><path d="M369.46 293.64a50.8 50.8 0 01-83 39.29 51.33 51.33 0 01-9.52-10.33 50 50 0 01-3.28-5.39 50.7 50.7 0 01-5.79-23.57v-1.21a50.86 50.86 0 0137-47.72 52.53 52.53 0 0112.24-1.86h1.52a50.8 50.8 0 0150.83 50.79zM390.4 152.43c-81.27 38.91-146.22 0-146.22 0A661.75 661.75 0 01311.41 0s45.56 52.31 78.99 152.43zm6.19 439.35q-5.7 22.44-12.7 45.65-3.32 11.07-7 22.32s-35.72 37.21-122 0c0 0-2.8-7.89-7-22.32-3.14-10.9-7.05-25.51-11.13-43.29 0 0 32.12 13.71 77.71 13.71a214.11 214.11 0 0082.12-16.07z"/><path d="M383.89 637.43q-3.32 11.07-7 22.32s-35.72 37.21-122 0c0 0-2.8-7.89-7-22.32-.01 0 87.93 25.3 136 0z"/><path d="M304.9 244.64l-.11.08-36.9 47.64v1.21a50.7 50.7 0 005.79 23.57l43.48-74.36zm11.78 43l-30.22 45.25a51.33 51.33 0 01-9.52-10.33l36-38.64z" opacity=".2"/><path d="M274.2 659.76s-8.62-24.31-18.1-65.61c-20.87-90.84-45.9-263.93 7.43-441.72a664.18 664.18 0 0158.85-138.09c-6.77-9.49-11-14.33-11-14.33a661.68 661.68 0 00-67.2 152.42c-53.33 177.79-28.3 350.88-7.43 441.72 9.48 41.3 18.1 65.61 18.1 65.61 34.09 14.69 60.28 17.77 79.5 16.13-16.42-1.25-36.36-5.88-60.15-16.13z" opacity=".2"/><path d="M936.98 728.93s46.74-58.16 43.64-116.41a113.05 113.05 0 0118.54-69.06 190.19 190.19 0 0122-27"/><path d="M1019.39 479.78c-3.34 8.11 1.66 37.68 1.66 37.68s24.37-17.48 27.71-25.59a15.88 15.88 0 00-29.37-12.09zm-42.78 34.94c1.61 8.62 21.88 30.72 21.88 30.72s11-27.91 9.35-36.54a15.884 15.884 0 00-31.23 5.82zm-30.54 77.22c5.74 6.63 34.4 15.48 34.4 15.48s-4.64-29.63-10.38-36.27a15.88 15.88 0 00-24 20.79zm-9.95 63.63c4.53 7.51 31.28 21.07 31.28 21.07s.44-30-4.09-37.5a15.884 15.884 0 10-27.19 16.43zm92.56-95.86c-8.14 3.25-37.66-2.05-37.66-2.05s17.72-24.19 25.87-27.45a15.884 15.884 0 0111.79 29.5zm-12.58 74.27c-8.74.67-35.32-13.22-35.32-13.22s24.14-17.79 32.89-18.46a15.89 15.89 0 012.43 31.68zm-22.13 70.5c-8.51 2.14-37.05-7.06-37.05-7.06s20.79-21.61 29.3-23.74a15.88 15.88 0 117.75 30.8z"/><path d="M1019.39 479.78c-3.34 8.11 1.66 37.68 1.66 37.68s24.37-17.48 27.71-25.59a15.88 15.88 0 00-29.37-12.09zm-42.78 34.94c1.61 8.62 21.88 30.72 21.88 30.72s11-27.91 9.35-36.54a15.884 15.884 0 00-31.23 5.82zm-30.54 77.22c5.74 6.63 34.4 15.48 34.4 15.48s-4.64-29.63-10.38-36.27a15.88 15.88 0 00-24 20.79zm-9.95 63.63c4.53 7.51 31.28 21.07 31.28 21.07s.44-30-4.09-37.5a15.884 15.884 0 10-27.19 16.43zm92.56-95.86c-8.14 3.25-37.66-2.05-37.66-2.05s17.72-24.19 25.87-27.45a15.884 15.884 0 0111.79 29.5zm-12.58 74.27c-8.74.67-35.32-13.22-35.32-13.22s24.14-17.79 32.89-18.46a15.89 15.89 0 012.43 31.68zm-22.13 70.5c-8.51 2.14-37.05-7.06-37.05-7.06s20.79-21.61 29.3-23.74a15.88 15.88 0 117.75 30.8z" opacity=".25"/><path d="M937.4 726.5s66.3-34.24 87.07-88.74a113 113 0 0144.94-55.63 189.91 189.91 0 0131-15.76"/><path d="M1113.7 532.1c-6.34 6.07-13.75 35.13-13.75 35.13s29.36-6.11 35.7-12.17a15.897 15.897 0 00-21.95-23zm-53.26 14.61c-2 8.54 7.55 37 7.55 37s21.29-21.07 23.35-29.66a15.88 15.88 0 00-30.9-7.34zm-59.22 58.22c2.56 8.39 25.18 28.09 25.18 28.09s7.77-29 5.21-37.35a15.885 15.885 0 00-30.39 9.26zm-34.88 54.14c1.1 8.71 20.06 31.94 20.06 31.94s12.56-27.23 11.45-35.94a15.881 15.881 0 00-31.51 4zm123.47-50.13c-8.77-.32-33.6-17.13-33.6-17.13s26-14.93 34.77-14.61a15.88 15.88 0 11-1.17 31.74zm-41.6 62.8c-8.27-2.93-26.94-26.4-26.94-26.4s29.29-6.47 37.55-3.54a15.882 15.882 0 11-10.61 29.94zm-48.81 55.49c-8.64-1.49-31-21.47-31-21.47s27.77-11.32 36.41-9.83a15.881 15.881 0 11-5.4 31.3z"/><path d="M1031.67 694.36l-51.39-74.53s-1-18.45-4.32-22.76-.72-13.9-.72-13.9 3.6-5.27.48-5.75-.48-12.23-.48-12.23L975 546.5s2.88-18 .48-22.28a7.07 7.07 0 01.24-7.67s2.88-10.31 0-12.94-2.16-18.7-1.44-31.4-5.05-19.89-5.05-21.81-19-20.61-19-22.28-12-8.63-19.21-10.55-10.81-3.35-10.57-4.31-11.29-4.79-11.29-4.79-10.09-.72-13.94-5.76-15.59-6.48-15.93-6.53c-.07-.33-.15-.67-.22-1s-.15-.72-.22-1.08c.91-1.53 1.75-3.09 2.51-4.7.23-.49.45-1 .66-1.46 4.21-.19 8.53-1.09 11.83-3.67a16.11 16.11 0 005.75-11.49 25.19 25.19 0 00-2.81-12.77c-2.1-4.32-5.19-8.79-4.13-13.47.47-2 1.68-3.8 2.3-5.78 1.17-3.75.09-7.87-1.73-11.35s-4.35-6.54-6.37-9.91a38.7 38.7 0 01-5.07-14c-.41-2.6-.57-5.34-1.88-7.63a14.21 14.21 0 00-4.21-4.25 42.07 42.07 0 00-25.82-7.83c-6.54.23-13.06 2-19.55 1.19-3.91-.48-7.64-1.87-11.42-3-8.06-2.38-17.35-3.36-24.37 1.25s-9.81 13.68-14.56 20.77c-4.2 6.28-10.36 11.54-13.56 18.18 0-.12.06-.25.1-.38a21.75 21.75 0 00-1.79 4.84c-1.22 5.22-.2 10.68 1.07 15.89.65 2.69 1.55 5.61 3.88 7.1s5.63 1.16 8.39 1.65c-.1.45-.22.91-.32 1.37a54.9 54.9 0 0038.09 64v1.46a36.33 36.33 0 01-.25 4.12s-24.15-5-30.64-1.6-19.22 6-21.14 7.9-6.72.48-11 11.75-4.8 22.76-10.33 28-8.4 8.87-8.64 12.71.72 4.79-1.45 6-5.28 6.23-4.32 8.15c0 0 1.2 4.79-2.64 7.18s-3.37 7.19-3.37 7.19-1.44 5.28-4.8 6.47-5.53 9.11-5.53 9.11l-10.93 12.55-21.59-23.9a9.1 9.1 0 00-12.85-.66l-10.6 9.56a20.94 20.94 0 00-10.61 6.32 27.35 27.35 0 00-5.49 8.18l-5.81 5.22a14.75 14.75 0 00-1.49 16.28l13.83 15.29.09.13c-5.23.66-9.85 2.34-13.38 5.45-20.65 18.21-20.9 35-17.77 42.65s29.3 37.15 29.3 37.15 15.21 19.77 37.17 30.29l-.17.17c-.43.46-.86 1-1.28 1.5l-.36.46-.33.46-.39.58c-.11.15-.21.31-.31.47s-.28.45-.41.69l-.27.46c-.16.3-.33.61-.49.93l-.16.31c-.2.42-.4.85-.59 1.3-.07.16-.13.33-.2.49-.12.31-.25.63-.37 1s-.15.41-.22.62-.21.62-.31.94-.14.45-.2.67-.2.7-.29 1.06-.11.42-.17.65c-.13.55-.26 1.12-.37 1.72 0 .22-.08.45-.12.68q-.12.6-.21 1.23c-.05.29-.08.58-.12.87s-.1.79-.15 1.19l-.09.92c0 .44-.08.9-.11 1.36 0 .28 0 .56-.05.84 0 .76-.08 1.52-.09 2.32-.48 28 1.16 32.11 1.16 32.11s3.39 8.93 12.75 9.57a16.3 16.3 0 004.11-.22c12.49-2.16 41.79-7.19 52.12-5.27 6.21 1.15 17.71-.55 25.9-2.1l2.15-.41 1.5 4.76 4.75-1.3 4 2.33 2.55 1.46c4.74 16.08 24 10.6 24 10.6l4.52 2.62 46.36 1.2s10 6 16.41 7.88a15.24 15.24 0 002.33.51 105.21 105.21 0 0012.92.24c3.55-.09 6.3-.24 6.3-.24s-.47-12.59-1.15-26.68c17.72-.74 33.43-1.85 42.94-3.52 24.76-4.35 35.09-26.86 38.89-38.89a113.19 113.19 0 012.43 14.93 106.74 106.74 0 003.85 12.94 43.73 43.73 0 005.28 9.58c18.26-6.23 7.21-15.57 3.36-19.65s2.65-7.43 2.65-7.43 5-3.35 4.56-6.47-.72-6.47 15.61-6.23 15.65-13.45 15.65-13.45zm-253.66-153c.21 1.37 2.49 16.14 4.55 20 .43.82.6 3.73.54 7.89-9.68-.77-19.76-1.18-19.76-1.18a2.32 2.32 0 01.52 1.23l-1.52-.34-2.21-.54 17.83-27.12zm-35.32 56.2l16.75 2.66 1.41.22a55.11 55.11 0 00-.87 7.91c0 .25.38.55.92.9a21.57 21.57 0 00-.33 4c.27 1.33 8.1 4.19 17.08 6.57-.12.48-.24.94-.36 1.37-7.93-4.17-20.43-6.12-21.87-9.22s-44-18-44-18-1.55-.82-4.23-2.12l11.2 2.12 3.08-.31a167.91 167.91 0 0021.22 3.88z"/><path d="M976.99 704.79s-6.66 40.23-40.47 46.18-146.66 4.76-146.66 4.76-64.52-9.28-87.85-63.8-38.33-76.19-18.33-77.14 127.85 36.43 134 36.9 165.26-82.85 159.31 53.1z"/><path d="M976.99 704.79s-6.66 40.23-40.47 46.18-146.66 4.76-146.66 4.76-64.52-9.28-87.85-63.8-38.33-76.19-18.33-77.14 127.85 36.43 134 36.9 165.26-82.85 159.31 53.1z" opacity=".05"/><path d="M674.35 749.54s3.37 8.88 12.64 9.51a16.43 16.43 0 004.07-.22c12.38-2.14 41.43-7.14 51.66-5.24 6.16 1.15 17.55-.55 25.66-2.08 5.4-1 9.34-2 9.34-2S768.2 717.85 767 716.9s-42.85-25.95-42.85-25.95l-33-2.37h-.1s-6.11.41-11.18 6.57c-3.49 4.21-6.48 11.13-6.68 22.47-.46 27.87 1.16 31.92 1.16 31.92z"/><path d="M674.35 749.54s3.37 8.88 12.64 9.51a135.54 135.54 0 01-9-13.08l.17-23.09c-1.47-17.29 6.62-28.36 13-34.27h-.1s-17.38 1.18-17.86 29 1.15 31.93 1.15 31.93z" opacity=".05"/><path d="M817.48 699.07l30.71-24 48.33-47.62s-5.22-.25-13.09-.59c-2 1.25-7.45 5.18-7.65 10-.24 5.82-13.07.4-19.73 3.73s-39.28 45.08-45 44.81-10.23-2.9-12.62 1.15c0 .09-.11.17-.17.26zm-137.6-3.9c1.09.53 2.19 1 3.32 1.52 23.34 10 52.14 31 54.29 34.76 1.3 2.32 18 12.46 30.89 20.06 5.4-1 9.34-2 9.34-2S768.2 717.85 767 716.9s-42.85-25.95-42.85-25.95l-33-2.37h-.1s-6.1.43-11.17 6.59z" opacity=".1"/><path d="M615.12 626.93c3.09 7.62 29 36.91 29 36.91s16.42 21.42 39.76 31.42 52.14 31 54.28 34.76c1.38 2.45 20 13.65 33.08 21.35l2.93 1.71 6.5 3.77 3.44 2s8-6.4 15.91-12.84 15.63-12.75 15.76-13.11c.23-.71 3.32-8.81 2.61-9.28-.37-.25-2-3.55-5-7.37a33.82 33.82 0 00-12.13-10c-11-5-15.71-16.38-15.71-16.38s-1-.76-2.63-1.76c-2.82-1.78-7.35-4.34-10.7-4.77-5.25-.66-15-11.37-15-11.37s-6.67-4.29-9.29-9.76c-2.5-5.22-39.42-30.58-42.84-32.92l89.51 57.48 21.42 13.77 30.71-24 48.34-47.62s-6.5-.32-16-.72c-23.49-1-65.21-2.61-70.48-1.42a40.17 40.17 0 01-13.1.85s-11.88.54-19.74-3.61-20.25-6.09-21.68-9.16-43.57-17.85-43.57-17.85-57.37-30.47-77.85-12.37-20.63 34.68-17.53 42.29zM800.1 452.19l7.38 24.52 9.52 55.23 35 2.38 10.13-16.8 10.15-16.77s6.3-22.32 10.83-43.91c4-19.1 6.62-37.64 2.26-39.65-3.86-1.79-6.4-8.22-8-15.14-.21-.85-.4-1.72-.58-2.59a134.62 134.62 0 01-2.32-17.75s-73.33-3.8-63.09 26.43a48.18 48.18 0 012.76 16.08 38.23 38.23 0 01-.25 4.09 34.3 34.3 0 01-13.79 23.88z"/><path d="M784.86 448.14l2.62 41.66 5.95 35.47 6.67 16.43 5.95 89.88s57.41 6.64 71.37-.12a6.14 6.14 0 002.53-2c16.86-25.43 11.33-99.19 11.33-99.19l6.43-47.63-4.29-24.72-10.35-1.1-8-.85s-1.8 2.22-4.4 5.65c-7.06 9.32-20 27.65-19.17 35.3 1.18 10.48-1.43 21.19-5.48 22.86s-7.38 4.52-8.09 1.67-1.43-3.57-.72-7.62-3.1-16.43-3.1-16.43-6.42-14.52-6-20.71-.71-13.34-2.62-15-4.52-3.34-2.38-11-9.39-22.45-9.39-22.45z"/><path d="M860.69 552.19l2.38 71.19 13.75 7.62a6.15 6.15 0 002.53-2c16.87-25.47 11.34-99.22 11.34-99.22l6.43-47.62-4.29-24.71-10.36-1.1c4-19.1 6.62-37.64 2.27-39.65-3.87-1.79-6.41-8.22-8.06-15.14l-7.4 50.4s.62 4.54.84 9.22c.17 3.48.11 7-.6 8.87-1.67 4.29-.48 11.91-.48 11.91-4.29 7.56-6.43 21.57-7.48 35.1-1.41 17.99-.87 35.13-.87 35.13z" opacity=".1"/><path d="M876.91 400.46s12 1.49 15.8 6.49 13.81 5.69 13.81 5.69 11.43 3.81 11.19 4.76 3.33 2.39 10.48 4.29 19 8.81 19 10.48S966 452.4 966 454.31s5.72 9 5 21.66-1.43 28.57 1.43 31.19 0 12.86 0 12.86a7 7 0 00-.15 7.62c2.38 4.29-.47 22.15-.47 22.15l.23 18.57s-2.62 11.66.48 12.14-.48 5.71-.48 5.71-2.62 9.53.72 13.81 4.28 22.62 4.28 22.62l51 74s.72 13.57-15.47 13.33-16 3.1-15.48 6.19-4.52 6.43-4.52 6.43-6.43 3.33-2.62 7.38 14.76 13.33-3.33 19.52a43.16 43.16 0 01-5.24-9.52 107.72 107.72 0 01-3.81-12.85s-1.67-18.1-5-20.48-2.86-13.81-2.86-13.81 4.76-9.28-1.9-13.09-103.43-57.33-103.43-57.33L862 551.22s-1.67-52.61 8.33-70.23c0 0-1.19-7.62.48-11.9s-.24-18.1-.24-18.1z"/><path d="M814.51 429.02s-23.93-4.93-30.36-1.6-19 6-21 7.86-6.67.48-10.95 11.67-4.77 22.61-10.24 27.85-8.33 8.81-8.57 12.62.71 4.76-1.43 6-5.24 6.19-4.29 8.1 49.61 43.75 49.61 43.75 2.39 16 4.53 20-2.38 59.76-7.14 63.57 32.14 3.46 32.14 3.46 1.66-36.55 3.09-38.46-1-41-1-41-.24-33.33 2.86-42.14 2.75-38.06 2.75-38.06 2.74-17.57 6.07-21.67-6.07-21.95-6.07-21.95z" opacity=".1"/><path d="M813.8 428.31s-23.94-4.93-30.37-1.6-19 5.95-20.95 7.86-6.66.47-11 11.66-4.76 22.62-10.24 27.86-8.33 8.81-8.57 12.62.72 4.76-1.42 5.95-5.24 6.19-4.29 8.09 49.52 43.81 49.52 43.81 2.38 16 4.52 20-2.38 59.75-7.14 63.56 32.14 3.46 32.14 3.46 1.67-36.55 3.1-38.45-1-41-1-41-.23-33.33 2.86-42.14 2.75-38.1 2.75-38.1 2.74-17.57 6.06-21.66-5.97-21.92-5.97-21.92z"/><path d="M811.28 408.14a48.18 48.18 0 012.76 16.08 54.63 54.63 0 0062.65-24.76 134.62 134.62 0 01-2.32-17.75s-73.32-3.8-63.09 26.43z" opacity=".1"/><path d="M775.1 370.52a54.52 54.52 0 101.18-11.33 54.53 54.53 0 00-1.18 11.33zM740.1 496.7l-13.09 4.05s1.19 4.76-2.62 7.14-3.33 7.15-3.33 7.15-1.43 5.23-4.76 6.42-5.48 9-5.48 9l-10.95 12.62s-4.05 3.33-3.33 5-4.29 2.14-4.29 2.14l2.62 42.42 22.62 4.29 14-1.43 11.43-4.29 10-6 4.56-11.57 20-30.47z"/><path d="M695.58 553.64s-29-41.91-50.71-19.29 8.81 59.28 15.95 58.09 41.19-3.09 41.19-3.09z"/><rect x="671.34" y="583.93" width="61.42" height="69.8" rx="12.62" ry="12.62" transform="rotate(-42.05 613.877 629.306)"/><rect x="671.34" y="583.93" width="61.42" height="69.8" rx="12.62" ry="12.62" transform="rotate(-42.05 613.877 629.306)" opacity=".1"/><rect x="672.16" y="580.48" width="61.42" height="69.8" rx="12.62" ry="12.62" transform="rotate(-42.05 614.695 625.858)"/><circle cx="672.39" cy="560.74" r="13.57"/><circle cx="672.39" cy="560.74" r="13.57" opacity=".1"/><circle cx="673.15" cy="559.02" r="13.57"/><path d="M676.78 562.41c-.24 31.43 64.76 38.09 64.76 38.09l16.6 2.64 7.44 1.18 3.1-30.68s-3.41-.51-7.67-1.5c-6.29-1.47-14.44-4-16.15-7.55-2.85-5.95-67.85-33.6-68.08-2.18z"/><path d="M776.28 359.19a6.47 6.47 0 014 1.78c1.84 1.95 1.94 5.41 4.33 6.61a4.92 4.92 0 002.84.33c6.33-.9 10-8 16.07-10 3.46-1.12 7.27-.39 10.65.91a7.93 7.93 0 013.53 2.27c2 2.63.61 6.5 1.55 9.69 1.31 4.42 6.59 6.18 11.16 6.76s9.72.9 12.77 4.35c2.16 2.45 2.71 6 2.27 9.21a7.29 7.29 0 000 3.41c1.26 3.57 7.44 3 9.05.22 1.18-2.05.82-3.75 3.6-4.32 1.88-.39 4.09.4 5.83 1a42.71 42.71 0 0015.08 2.32 54.53 54.53 0 10-102.73-34.54z" opacity=".1"/><path d="M845.42 393.07a7.29 7.29 0 010-3.41c.43-3.23-.11-6.77-2.27-9.21-3-3.45-8.2-3.78-12.77-4.35s-9.85-2.33-11.16-6.75c-.94-3.19.48-7.07-1.55-9.7a7.8 7.8 0 00-3.52-2.26c-3.39-1.31-7.2-2-10.66-.92-6.07 2-9.74 9.12-16.07 10a4.92 4.92 0 01-2.84-.33c-2.39-1.2-2.49-4.66-4.33-6.6-2.89-3.06-8.38-1.09-11.92-3.36-2.31-1.49-3.2-4.38-3.84-7.05-1.26-5.18-2.27-10.61-1.06-15.79 2.07-8.86 10-14.93 15-22.49 4.71-7.05 7.35-16 14.43-20.64s16.17-3.61 24.15-1.24c3.74 1.11 7.44 2.49 11.31 3 6.44.79 12.9-1 19.38-1.18a41.62 41.62 0 0125.59 7.77 14.16 14.16 0 014.18 4.23c1.29 2.28 1.46 5 1.85 7.58a38.75 38.75 0 005 13.93c2 3.35 4.51 6.39 6.32 9.85s2.87 7.55 1.71 11.27c-.61 2-1.82 3.73-2.27 5.74-1.06 4.65 2 9.09 4.09 13.38a25.1 25.1 0 012.78 12.69 16 16 0 01-5.7 11.41c-3.37 2.64-7.8 3.52-12.07 3.66a42.78 42.78 0 01-15.38-2.31c-1.75-.6-4-1.39-5.83-1-2.78.57-2.42 2.27-3.6 4.32-1.52 2.8-7.69 3.33-8.95-.24z"/><path d="M816.05 700.5l30.71-24 48.34-47.62s-6.5-.32-16-.72c-1.73 1.76-3.27 4-3.37 6.5-.24 5.82-13.07.41-19.73 3.74s-39.28 45.07-45 44.8-10.23-2.9-12.62 1.15a2.46 2.46 0 01-.17.27 6.77 6.77 0 01-3.63 2.15z" opacity=".1"/><path d="M754.15 698.83l15.43 49.26 2.42 7.74 7.35-2 16.2-4.45 72.16-19.82s13.56-.18 26-6.93c13.75-7.48 29.26-11.24 44.84-9.78 9.54.89 20.15-3.22 29-19.48 0 0 20-59-30.48-76s-52.88 9-52.88 9-.26.14-.68.42c-2 1.25-7.45 5.18-7.65 10-.24 5.82-13.07.4-19.73 3.73s-39.28 45.08-45 44.81-10.23-2.9-12.62 1.15c0 .09-.11.17-.17.26-1.76 2.43-7.06 3-10.57 3.09-1.91.06-3.3 0-3.3 0l-.45.14-3.74 1.04z"/><path d="M758.14 603.14l7.44 1.18 3.1-30.68s-3.41-.51-7.67-1.5c1.13 4.25-1.43 20.82-2.87 31z" opacity=".1"/><path d="M952.82 459.64s22.14-6.43 16.66 56.43-46.42 102.57-46.42 102.57-47.14 20.71-68.33 17.38-36.66-4-36.66-4a53.79 53.79 0 00-21.43-5.71c-11.91-.48-36.9-7.86-37.38-10.24s6.19-37.38 3.33-40c0 0 33.33 1.37 36.67 3.78s8.09.68 11.66 0 14.53-10.21 36.19-1.87c0 0 7.38.71 10.24-1.19s7.44-.48 7.44-.48 4.49-1.67 5.18-2.67 6.42 0 6.42 0a2.54 2.54 0 003.58-1.67 15.56 15.56 0 013.33-5.23s6.43-36.19 18.57-49.76c0 0 3.57-3.1 2.62-6.91s19.79-58.06 48.33-50.43z" opacity=".1"/><path d="M952.28 454.8s22.14-6.43 16.67 56.43-46.48 102.61-46.48 102.61-47.14 20.71-68.33 17.38-36.66-4.05-36.66-4.05a53.72 53.72 0 00-21.43-5.71c-11.9-.48-36.9-7.86-37.38-10.24s6.19-37.38 3.34-40c0 0 33.33 1.37 36.66 3.78s8.1.68 11.67 0 14.52-10.2 36.19-1.87c0 0 7.38.71 10.23-1.19s7.45-.48 7.45-.48 4.46-1.67 5.17-2.62 6.43 0 6.43 0a2.53 2.53 0 003.57-1.66 15.54 15.54 0 013.33-5.24s6.43-36.19 18.57-49.76c0 0 3.57-3.1 2.62-6.9s19.76-58.1 48.38-50.48z"/><path d="M780.28 691.01l31.44 38c.12-.11.2-.19.2-.22.24-.72 3.33-8.81 2.62-9.29s-6.19-12.38-17.14-17.38c-6.69-3-11.07-8.49-13.46-12.25z" opacity=".1"/><path d="M780.71 756.85l3.44 2s8-6.4 15.91-12.84 15.63-12.75 15.76-13.11c.23-.71 3.32-8.81 2.61-9.28-.37-.25-2-3.55-5-7.37-21.32-6-7.75 8.83-5.94 9.51 0 0-26-6-27.38 22.31a33.36 33.36 0 00.6 8.78z" opacity=".1"/><path d="M807 768.83l4.53 2.62 46 1.19s9.86 6 16.26 7.82a13.93 13.93 0 002.31.51 103.27 103.27 0 0012.8.24c3.52-.09 6.25-.24 6.25-.24s-2.18-58-3.82-64c-.78-2.92-4.63-2.28-8.43-.82a55.19 55.19 0 00-8.23 4.17s-19.52 1.89-22.62 3.57-11.9-1-17.38 0-15.23-6.45-15.23-6.45c-26.67-8.8-11.67 7.62-9.77 8.34 0 0-25.94-6-27.37 22.31s24.7 20.74 24.7 20.74z"/><path d="M873.43 746.45c.5 12 9.85 26.89 15.42 34.76 3.52-.09 6.25-.24 6.25-.24s-2.18-58-3.82-64c-.78-2.92-4.63-2.28-8.43-.82-4.57 8.6-9.82 20.63-9.42 30.3z"/><path d="M873.43 746.45c.5 12 9.85 26.89 15.42 34.76 3.52-.09 6.25-.24 6.25-.24s-2.18-58-3.82-64c-.78-2.92-4.63-2.28-8.43-.82-4.57 8.6-9.82 20.63-9.42 30.3z" opacity=".1"/><path d="M865.57 748.04c3.16 11.58 3.13 24.57 8.17 32.42a13.93 13.93 0 002.31.51 103.27 103.27 0 0012.8.24c3.52-.09 6.25-.24 6.25-.24s-2.18-58-3.82-64c-.78-2.92-4.63-2.28-8.43-.82a55.19 55.19 0 00-8.23 4.17s-13.09 12.9-9.05 27.72z" opacity=".05"/><path d="M707.05 630.58s22.82 7.41 42.16 33.73zM892.51 344.9a4.67 4.67 0 01-.14.5 16.15 16.15 0 01-.79 2 14.93 14.93 0 01.93-2.5zm-129.12-11.55a21.46 21.46 0 011.77-4.81c-.12.41-.25.82-.35 1.24-1.21 5.18-.2 10.61 1.06 15.79.65 2.67 1.53 5.56 3.84 7.05 3.55 2.27 9 .29 11.92 3.35 1.84 1.95 1.94 5.41 4.34 6.61a4.91 4.91 0 002.84.33c6.32-.9 10-8 16.07-10 3.46-1.12 7.26-.39 10.65.92a7.8 7.8 0 013.52 2.26c2 2.63.61 6.51 1.55 9.69 1.31 4.42 6.59 6.18 11.16 6.75s9.72.9 12.77 4.36c2.16 2.44 2.71 6 2.27 9.21a7.42 7.42 0 000 3.41c1.26 3.57 7.44 3 9 .22 1.18-2.05.83-3.75 3.61-4.32 1.87-.39 4.08.4 5.82 1a42.78 42.78 0 0015.38 2.31c4.27-.15 8.71-1 12.07-3.66a14 14 0 003.7-4.5 15.14 15.14 0 01-5.1 8.08c-3.36 2.64-7.79 3.52-12.07 3.66a42.69 42.69 0 01-15.37-2.31c-1.75-.6-4-1.39-5.83-1-2.78.57-2.43 2.27-3.6 4.32-1.62 2.82-7.79 3.35-9.06-.22a7.42 7.42 0 010-3.41c.44-3.23-.1-6.77-2.26-9.21-3.06-3.45-8.21-3.78-12.78-4.35s-9.85-2.33-11.15-6.75c-.95-3.19.48-7.07-1.55-9.7a7.88 7.88 0 00-3.53-2.26c-3.39-1.31-7.19-2-10.65-.92-6.08 2-9.75 9.12-16.07 10a4.91 4.91 0 01-2.84-.33c-2.4-1.2-2.5-4.66-4.34-6.6-2.89-3.06-8.37-1.09-11.91-3.36-2.32-1.49-3.2-4.38-3.85-7.05-1.24-5.19-2.25-10.62-1.03-15.8zM896.2 523.9c-4.36 5.89-9.34 11.34-13.2 17.57s-6.59 13.5-5.78 20.78c4-4.1 5.82-9.76 8.34-14.9 4.26-8.7 10.64-16.08 16-24.08 1-1.53 7.61-10.35 4.28-10.77-2.74-.35-8.15 9.39-9.64 11.4z" opacity=".1"/></symbol><symbol viewBox="0 0 999 797.25" id="svg-graphic--undraw_press_play_bx2d" xmlns="http://www.w3.org/2000/svg"><path d="M321.21 31.27C351.99 3.84 400.32-1.73 444.3.43c138.16 6.87 262.87 73.56 370.74 149 39.05 27.31 77.5 56.74 102.85 94.35 51.6 76.57 36.3 182.63-35.46 245.7-24.41 21.46-54 37.91-84.39 52.5-54 25.93-112.31 46.74-173.62 52.67-43.73 4.22-88 .79-131.46-5.11-121.46-16.46-240.65-52.91-340.56-115.19-43.82-27.33-85.13-61.3-103.19-105.52s-6.5-100.2 38.29-126.4c18.51-10.82 40.64-15.71 62.3-20.3 31.89-6.76 64.29-13.42 93.06-27.15 29.72-14.19 64.92-41.63 59-73-6.36-33.72-11.36-63.35 19.35-90.71z" opacity=".1"/><circle cx="174.08" cy="129.4" r="31.5" opacity=".1"/><circle cx="108.09" cy="54.4" r="19.5" opacity=".1"/><circle cx="925.57" cy="114.4" r="12" opacity=".1"/><ellipse cx="689.92" cy="788.85" rx="84.24" ry="8.4" opacity=".1"/><path d="M214 487.31l-.37 19.95-2.96 161.71-25.34 59.34-87.33 1V496.5l91.14-7.22 24.86-1.97z"/><path opacity=".1" d="M214 487.31l-.37 19.95-2.96 161.71-25.34 59.34-87.33 1V496.5l91.14-7.22 24.86-1.97z"/><path d="M214 487.31l-.37 19.95-2.96 161.71-25.34 59.34L192 507.64l-.02-.14-2.84-18.22 24.86-1.97z"/><path opacity=".1" d="M189.14 489.28l24.86-1.97-.37 19.95-21.65.24L98 508.55V496.5l91.14-7.22z"/><path d="M999 496.5v231.47h-20.33l-81.34-59.33V489.97l72.67-6.83 4.46 2.05 4.21 1.94L999 496.5z"/><path opacity=".1" d="M978.67 485.19H999v242.78h-20.33z"/><path opacity=".1" d="M999 485.19v13.31l-20.33.23-81.34.9v-9.66l72.67-6.83 4.46 2.05 4.21 1.94v-1.94H999z"/><path d="M999 477.64v18.86L0 507.64v-24l94-19 818-6 87 19z"/><path opacity=".1" d="M999 477.64v18.86L0 507.64v-24l999-6z"/><rect x="365.5" y="194.97" width="349.92" height="271.69" rx="22.82" ry="22.82"/><path d="M393.66 219.48h294.12v221.63H393.66z"/><circle cx="382.18" cy="330.29" r="4.82"/><circle cx="700.81" cy="330.81" r="7.95"/><path d="M572.43 331.15l-37.61-22.86a5.14 5.14 0 00-7.63 4.48v44.46a5.14 5.14 0 007.63 4.48l37.61-21.58a5.15 5.15 0 000-8.98zm28.28 3.85a53 53 0 10-53 53 53 53 0 0053-53zm-95.74 0a42.74 42.74 0 1142.74 42.74A42.73 42.73 0 01504.97 335z"/><path d="M803.88 509.14a12.5 12.5 0 00-1.13-3.52c.76-2.59 1.25-4.18 1.25-4.18s0-.38-.12-1a15.35 15.35 0 00-15.55-12.88c-6 .11-17.38.51-30 1.93.72-5.05 1.58-11.09 2.48-17.31l1.65.18c.38 0 .78 0 1.18.06h.53a5.44 5.44 0 003.66-1.12 2.16 2.16 0 00-.67-3.54 8.92 8.92 0 007.83-3.28 7 7 0 000-8.14c-2.11-3-6.58-5-6.82-8.53-.13-2 1.21-3.8 2.26-5.57a23.27 23.27 0 00-3.67-27.95 54.76 54.76 0 00-4.44-3.95c-2.2-8.08-4.5-15.3-5.18-15.53-.88-.29-2.39-2.19-3.83-3.82a18.4 18.4 0 00-.07-4.13c-1.06-7-8-12-11.82-18.18s-4.51-13.75-3.53-20.83 3.45-13.93 5.46-20.84c1.5-5.13 2.75-10.58 1.07-15.67-1.19-3.63-3.78-6.77-6.45-9.72-6.41-7.09-13.8-13.73-22.92-18a45.55 45.55 0 00-20.29-4.34h-.07l-1.1.06-.78.05-.78.08-.83.08c-.85.11-1.69.24-2.53.41a87.31 87.31 0 00-18.55-2.08h-.81a9.5 9.5 0 00-5.3 1.25c-2.22 1.55-2.5 4.33-3.17 6.75a18.73 18.73 0 01-7.2 10c-2.39 1.72-5.2 3-7.48 4.8s-4.06 4.5-3.45 7.16c.51 2.23 2.59 3.89 5 4.9-.29.36-.59.71-.87 1.08.47.19 1 .36 1.43.5 3 .89 6.23 1 9.27 1.81a20.31 20.31 0 012.46.83 35.12 35.12 0 00-4.11 16.52 35.59 35.59 0 0018.62 31.22v1c.31 10.44-.48 23.14-5.82 25.29s-10.45 4.58-13.6 6.15l-1 .53c-.83-.38-1.66-.78-2.47-1.2 0 0-4.25-.5-3.51 2.74 0 0-12.85-2-19.9 3.49s-18.62 16.95-20.89 19.94-19.82 9.53-19.82 9.53 5.53-7.73 3.14-17.2c0 0-2.64-11.42-1.38-16s4.53-21.58 4.53-21.58.46-17.94-9.33-26.17-16.6-15-12.82-7a111.46 111.46 0 005.54 10.71s-23.41 5.56-15.1 14.24 10.57 8.69 10.57 8.69-2.77 21.43-3.28 25.42-5 34.39-5 34.39-.25 14.46 2.27 16.7c0 0 1.65 9.31 12.08 9 0 0 19.88-.5 25.42-2.74s24.66-14.21 26.68-13.46a1.15 1.15 0 01.39.26 2.83 2.83 0 01.3.3c-2 4.43-6.74 19.47-4.72 26.86 0 0-1.76 20.93 8.81 27.66 0 0 15.35 25.92 9.56 39.87-.46 1.13-.87 2.17-1.25 3.18-8.79-7.29-22.2-14-42.68-17.71-2.09-.38-4.17-.84-6.23-1.34-5.82-1.41-21.83-2.7-29.45 22.61a111.36 111.36 0 01-6.76 17.12c-3 6.07-6.33 14.77-6.4 23.4-.17 12.1 6.08 24.09 28.76 28.49.25 9 1.28 19.72 4.36 27.43 6.29 15.7 16.36 41.12 16.36 41.12s12.08 25.92 12.84 36.38c.49 6.85 1.21 15.83.71 22 0 .38-.06.74-.1 1.1a26.52 26.52 0 01-3.38 3.07c-1.76 1-7.55 7.23-7.55 8.72a26.64 26.64 0 00.38 4.26c-2.74 2.39-4.24 5-4.24 7.6 0 13.52 38.37 24.48 85.7 24.48s85.69-11 85.69-24.48c0-12.34-32-22.54-73.58-24.22 8.67-3.46 16.37-7.09 19.56-10a4.68 4.68 0 001.51-2.06l-8.05-18.69s-.63.14-1.56.41l-.56-.84c-3.58-5.45-10.47-16.31-10.47-19.26 0-1.09-1.82-8.06-4.46-17.61v-30.65c26.26 4 60.1-1.44 60.1-1.44l.15-.08h.66v-.36c4.55-2.52 27.31-15.85 34.06-33.53 2-5.16-.49-12.55-5.44-20.45 3.46-8.59 12-30.78 11.15-39.63 0-.47-.06-1-.06-1.52a26.12 26.12 0 00.1-2.72c1-13 9-36.75 9-36.75s-.05-.41-.15-1.01zm-170-57.76c1.82 3.2 3.77 7.29 4.54 8.95s-2.66-4.9-4.49-8.95zm1.9 280.1l-.19.07v-1a59.38 59.38 0 01.19-7.82 9.16 9.16 0 00-.86-4.06 96 96 0 01-6.13-24.13c-1-8.72-1.83-18.23-1.31-20.65.78-3.71 1.42-31.81.45-45.66l15.48 3.48 18 36.7s11.58 17.92 15.17 32.06v14.16a34.6 34.6 0 01-5.41 11.74c-2.39 3.27-4.72 6.58-6.88 10-.66 1.06-1.39 2.15-2.12 3.17-.24 0-12.07.69-14.08 2.91-1.24 1.37-3.4 3.53-3.76 5.7l-.51.08c-2.32-6.91-7.99-16.75-7.99-16.75z"/><path d="M711.93 718.63l-4 13-17 14.75-25 7.18s-11.75-6.43-7.75-7.68c1.11-.35 2.43-1.62 3.77-3.28-1.4 5.1 9.73-1.47 9.73-1.47s28.75-20.5 31.75-22.75a22.61 22.61 0 016.4-2.93c1.25 1.95 2.1 3.18 2.1 3.18z" opacity=".1"/><path d="M711.93 718.63l-4 13-17 14.75-25 7.18s-11.75-6.43-7.75-7.68c1.11-.35 2.43-1.62 3.77-3.28a50 50 0 003.34-4.82c2.14-3.44 4.46-6.76 6.83-10a36 36 0 006.31-16.61c1.75-13.75-16-41.5-16-41.5l-32.25-66.25 45 5.5s24.25 83.25 24.25 87.25c0 3 6.84 13.85 10.4 19.32 1.25 1.91 2.1 3.14 2.1 3.14z"/><ellipse cx="686.97" cy="771.05" rx="85.12" ry="24.55"/><path d="M719.93 734.63a4.8 4.8 0 01-1.5 2.07c-6.18 5.67-29.29 14.1-43.57 18.68a101.11 101.11 0 01-11.43 3.25c-3.5.25-10.75-2-15.75-5.07s-.5-7.43 1.52-9.68 14-2.92 14-2.92c-5.75 9.57 8.49 1.17 8.49 1.17s28.75-20.5 31.75-22.75 8.5-3.5 8.5-3.5z"/><path d="M719.93 734.63a4.8 4.8 0 01-1.5 2.07c-6.18 5.67-29.29 14.1-43.57 18.68a101.11 101.11 0 01-11.43 3.25c-3.5.25-10.75-2-15.75-5.07s-.5-7.43 1.52-9.68 14-2.92 14-2.92c-5.75 9.57 8.49 1.17 8.49 1.17s28.75-20.5 31.75-22.75 8.5-3.5 8.5-3.5z" opacity=".3"/><path d="M718.43 736.72c-6.18 5.67-29.29 14.1-43.57 18.68 12.94-10.96 34.64-16.69 43.57-18.68z" opacity=".1"/><ellipse cx="686.97" cy="763.14" rx="17.03" ry="4.91" opacity=".1"/><path d="M677.5 633.64H695v129.5h-17.5z"/><path d="M695 640.06v15c-3.5-1.08-11.49-5.63-17.5-9.21v-12.22h3.65z" opacity=".1"/><path d="M653.77 577.26s57.78-14.87 72.16-26 70.85 41.24 63.39 61-34.62 34.07-34.62 34.07-75.11 12.22-87.9-13.27-13.03-55.8-13.03-55.8z"/><path d="M653.77 577.26s57.78-14.87 72.16-26 70.85 41.24 63.39 61-34.62 34.07-34.62 34.07-75.11 12.22-87.9-13.27-13.03-55.8-13.03-55.8z" opacity=".1"/><path d="M648.77 571.26s57.78-14.87 72.16-26 70.85 41.24 63.39 61-34.62 34.07-34.62 34.07-75.11 12.22-87.9-13.27-13.03-55.8-13.03-55.8zM595.18 434.9l-6.25-2.27s5.5-7.75 3.13-17.25c0 0-2.63-11.46-1.38-16.1s4.5-21.65 4.5-21.65.46-18-9.27-26.25-16.48-15-12.73-7a111.4 111.4 0 005.5 10.75s-23.25 5.57-15 14.29 10.5 8.71 10.5 8.71-2.75 21.5-3.25 25.5-5 34.5-5 34.5-.25 14.5 2.25 16.75a11.31 11.31 0 0012 9c1.78-.03 23-23.48 15-28.98zm151-46v14l-14.5 4.73-24.7 18.18-6.55 4.82-29.25-11.75-18.5-19.5s.9-.49 2.46-1.3l1-.53c3.13-1.57 8.06-4 13.51-6.17s6.09-14.89 5.78-25.37v-1c-.25-7.35-1-13.36-1-13.36s3.05-.58 7.49-1.24c12.31-1.83 35.28-4.3 33.26 3.24a17.37 17.37 0 000 7.79c.06.28.12.57.19.85 2.08 9.09 8.52 18.61 8.52 18.61l20 7.2.56.2z"/><path d="M746.18 393.15v-4.25a14 14 0 014.75 0c1.75.5 5.07 5.75 6.57 6.25s10.68 34.75 9.68 37.75-10.45 70.73-10.45 70.73l-19.05 21-3.75-57.75 12.25-34.25zM647.43 550.4s-17.41 3.75-15.2 9.25 11.95 5.75 11.95 5.75zm24.25-111.05l-13.25 28.55-15.75 11.5-2.75-17.77s-5.32-11.75-7.61-13.74a1.15 1.15 0 00-.39-.26c-2-.75-21 11.25-26.5 13.5s-25.25 2.75-25.25 2.75l8.75-31.25s17.5-6.5 19.75-9.5 13.75-14.5 20.75-20 19.77-3.5 19.77-3.5l.2.08 3.28 1.42 9.5 23.25zm-34.75 284.8a59.64 59.64 0 00-.19 7.84c.07 2.79.19 5.16.19 5.16l-5.75 12s-19.75 6.5-16.5 3.75c1.13-.95 1.71-3.42 2-6.69.49-6.18-.22-15.19-.71-22.06-.75-10.5-12.75-36.5-12.75-36.5s-10-25.5-16.25-41.25-4-44.25-4-44.25 1-21.5 5.5-28 22-8.75 22-8.75l8.21 27.23s6.75 25.5 9.25 29.25 1.75 48.5.75 53.25c-.51 2.43.35 12 1.31 20.72a97.31 97.31 0 006.08 24.2 9.24 9.24 0 01.86 4.1z"/><path d="M636.93 737.15l-5.75 12s-19.75 6.5-16.5 3.75c1.13-.95 1.71-3.42 2-6.69.71-.71 1.47-1.49 2.25-2.29a50.49 50.49 0 0117.85-11.93c.03 2.79.15 5.16.15 5.16z" opacity=".1"/><path d="M645.95 755.01a.59.59 0 010 .14c-1 4.75-17.5 11.25-17.5 11.25s-10.5 1.75-16.5 3.25a4.15 4.15 0 01-1.41.13c-4.63-.35-4.84-9.26-4.84-10.63s5.75-7.75 7.5-8.75a53.63 53.63 0 005.56-5.33 51.6 51.6 0 0118.22-12.17s9.77 17.18 8.97 22.11z"/><path d="M645.95 755.01a.59.59 0 010 .14c-1 4.75-17.5 11.25-17.5 11.25s-10.5 1.75-16.5 3.25a4.15 4.15 0 01-1.41.13c-4.63-.35-4.84-9.26-4.84-10.63s5.75-7.75 7.5-8.75a53 53 0 005.64-5.41 50.57 50.57 0 0117.86-12l.28-.11s9.77 17.2 8.97 22.13z" opacity=".3"/><path d="M645.95 755.01a.59.59 0 010 .14c-1 4.75-17.5 11.25-17.5 11.25s-10.5 1.75-16.5 3.25a4.15 4.15 0 01-1.41.13c5.44-3.73 18.63-12.68 20.41-12.88s10.55-2.72 15-1.89zm69.46-392.72c-6.18 5.09-11.86 4.36-20.49 4.36-6.24 0-14.35 2.19-19.46-.62-.21-7.81-1-14.38-1-14.38s43.5-8.25 40.75 2a18.18 18.18 0 00.2 8.64z" opacity=".1"/><path d="M728.43 333.69a35.75 35.75 0 01-35.75 35.75c-.92 0-1.84 0-2.74-.1a35.75 35.75 0 1138.5-35.65z"/><path d="M662.18 424.4l9.5 15-13.25 28.55-15.75 11.5-2.75-17.82s-5.32-11.75-7.61-13.74c.66-1.61 1.11-2.35 1.11-1.76 0 2.5 6.15 13.75 6.15 13.75 19-6.5 13.1-31.75 13.1-31.75s-2.36-22.5-3.28-28.42l3.28 1.42zm84-35.5v14l-14.5 4.73-24.7 18.18-6.55 4.82-29.25-11.75-18.5-19.5s.9-.49 2.46-1.3l1-.53c12.87 5.85 26.8 8 36.75 8.77a111 111 0 0013.76.31c37.67-6 38.79-15.1 37.85-18.33z" opacity=".1"/><path d="M756.93 615.63a280.29 280.29 0 01-29 12.25c-17.25 6.25-55.25-2-60-3.25s-41.25-15.75-55.25-21.25-17.5-1-20.75-1.5-5.5-6.75-6-8.5 9-17 14.25-24.75 21-6.25 23.25-6.75 18 0 18 0-1-5 4.75-19-9.5-40-9.5-40c-10.5-6.75-8.75-27.75-8.75-27.75-2.5-9.25 5.5-30.5 5.5-28s6.15 13.75 6.15 13.75c19-6.5 13.1-31.75 13.1-31.75s-2.75-26.25-3.48-29.5 3.48-2.75 3.48-2.75q1.22.63 2.46 1.2c13.16 6.2 27.56 8.46 37.78 9.24a111 111 0 0013.76.31c45.67-7.37 37.58-19.12 37.28-19.54l2.22.79c16.5 12 11.5 51.75 11.5 51.75l-6.18 29.67-4.59 22.1s16.25 98.5 17.75 103.5-7.73 19.73-7.73 19.73z"/><path d="M635.18 570.63c-1 .75-12.25 24-4 30.5s4-30.5 4-30.5zm8 3.27c.25.75 23.5 37.75 36.25 40.75zm56.01-292.79l-3.72.79a25.07 25.07 0 013.14-.93zm56.02 159.52l-7 29.65a36.22 36.22 0 01-9.72-6.51c-2.23-2.12-4.23-4.55-7.1-5.94-3.69-1.79-8.14-1.55-12.33-1.7a59.32 59.32 0 01-15.42-2.64 10.88 10.88 0 01-4-1.94c-2.38-2.1-2.22-5.49-2-8.45a129.57 129.57 0 00.15-17.29c-.06-1.08-.14-2.16-.23-3.24-.4-4.83-1.7-10.43-6.64-12.5-2.54-1-5.57-.92-8-2.13a6.61 6.61 0 01-1-.62c-3.6-2.52-3.93-7.57-3.79-11.82q.32-8.76.61-17.53a50.94 50.94 0 00-.19-8.65 19.21 19.21 0 00-1.56-5.52c-2.17-4.64-6.69-8.51-7.5-13.41a5.43 5.43 0 01-.09-.69c-.42-4.38 2.34-8.46 3.31-12.77 1.94-8.67-4.58-18.17-14.17-20.66-3-.78-6.22-.93-9.21-1.82a14.79 14.79 0 01-1.41-.5c7.24-9.66 19.65-16 33.74-16 22.33 0 40.44 16 40.44 35.75 0 11.2-5.83 21.19-14.94 27.75.06.28.13.57.21.85 2.35 9.09 9.64 18.61 9.64 18.61l22.64 7.2 2.52.8c18.7 11.99 13.04 51.72 13.04 51.72zm12.29 28.72c-.22 0-.43-.05-.64-.09a1.33 1.33 0 01.64.09z" opacity=".1"/><path d="M690.18 280.12a86 86 0 00-19.08-2.23c-2.09 0-4.33.11-6 1.26-2.21 1.55-2.49 4.35-3.15 6.77a18.78 18.78 0 01-7.15 10c-2.37 1.73-5.16 3-7.43 4.82s-4 4.52-3.43 7.18 3.56 4.71 6.56 5.56 6.19 1 9.21 1.82c9.59 2.49 16.1 12 14.16 20.65-1 4.31-3.73 8.39-3.31 12.77.49 5.23 5.32 9.26 7.59 14.11 2.07 4.42 1.93 9.38 1.77 14.16l-.61 17.54c-.16 4.62.24 10.18 4.8 12.44 2.44 1.2 5.48 1.07 8 2.13 4.94 2.06 6.24 7.67 6.64 12.49a129.1 129.1 0 01.08 20.53c-.23 3-.39 6.35 2 8.45a10.72 10.72 0 004 1.94 59.32 59.32 0 0015.42 2.64c4.2.16 8.64-.08 12.33 1.7 2.87 1.39 4.87 3.83 7.1 5.94a39.24 39.24 0 0023.18 10.15c1.85.16 3.95.12 5.24-1.07s.53-3.76-1.31-3.61a8.89 8.89 0 008.42-3.22 7.1 7.1 0 000-8.17c-2.09-3-6.53-5-6.77-8.56-.13-2 1.2-3.81 2.24-5.59a23.51 23.51 0 00-3.64-28c-4.69-4.85-11.72-8.53-13.36-14.75-1.09-4.16.56-8.53-.07-12.76-1-7-7.93-12-11.74-18.24s-4.48-13.79-3.51-20.89 3.43-14 5.43-20.9c1.49-5.15 2.72-10.62 1.06-15.73-1.19-3.63-3.75-6.78-6.41-9.75-6.37-7.11-13.7-13.77-22.76-18s-20.1-5.87-29.72-2.74"/><path d="M690.18 280.12a86 86 0 00-19.08-2.23c-2.09 0-4.33.11-6 1.26-2.21 1.55-2.49 4.35-3.15 6.77a18.78 18.78 0 01-7.15 10c-2.37 1.73-5.16 3-7.43 4.82s-4 4.52-3.43 7.18 3.56 4.71 6.56 5.56 6.19 1 9.21 1.82c9.59 2.49 16.1 12 14.16 20.65-1 4.31-3.73 8.39-3.31 12.77.49 5.23 5.32 9.26 7.59 14.11 2.07 4.42 1.93 9.38 1.77 14.16l-.61 17.54c-.16 4.62.24 10.18 4.8 12.44 2.44 1.2 5.48 1.07 8 2.13 4.94 2.06 6.24 7.67 6.64 12.49a129.1 129.1 0 01.08 20.53c-.23 3-.39 6.35 2 8.45a10.72 10.72 0 004 1.94 59.32 59.32 0 0015.42 2.64c4.2.16 8.64-.08 12.33 1.7 2.87 1.39 4.87 3.83 7.1 5.94a39.24 39.24 0 0023.18 10.15c1.85.16 3.95.12 5.24-1.07s.53-3.76-1.31-3.61a8.89 8.89 0 008.42-3.22 7.1 7.1 0 000-8.17c-2.09-3-6.53-5-6.77-8.56-.13-2 1.2-3.81 2.24-5.59a23.51 23.51 0 00-3.64-28c-4.69-4.85-11.72-8.53-13.36-14.75-1.09-4.16.56-8.53-.07-12.76-1-7-7.93-12-11.74-18.24s-4.48-13.79-3.51-20.89 3.43-14 5.43-20.9c1.49-5.15 2.72-10.62 1.06-15.73-1.19-3.63-3.75-6.78-6.41-9.75-6.37-7.11-13.7-13.77-22.76-18s-20.1-5.87-29.72-2.74M636.68 502.9s8.5 3.25 17.5-5.75-17.5 5.75-17.5 5.75z" opacity=".1"/><path d="M693.94 279.97a35.56 35.56 0 015-.63 37.93 37.93 0 00-7 .22zm50.14 182.82c-2.24-2.11-4.23-4.55-7.11-5.94-3.68-1.78-8.13-1.54-12.33-1.7a59 59 0 01-15.42-2.64 10.72 10.72 0 01-4-1.94c-2.38-2.1-2.21-5.48-2-8.45a129.1 129.1 0 00-.08-20.53c-.41-4.82-1.7-10.43-6.65-12.49-2.53-1.06-5.56-.93-8-2.13-4.56-2.26-5-7.82-4.81-12.44q.31-8.77.61-17.53c.17-4.79.3-9.75-1.77-14.17-2.27-4.85-7.1-8.87-7.59-14.11-.41-4.37 2.35-8.46 3.32-12.77 1.94-8.67-4.58-18.16-14.17-20.65-3-.78-6.22-.94-9.21-1.82s-5.89-2.78-6.51-5.5 1.15-5.36 3.42-7.19 5.06-3.09 7.44-4.82a18.71 18.71 0 007.14-10c.67-2.42 1-5.21 3.15-6.77a8 8 0 014.1-1.2c-.89 0-1.78-.05-2.66-.05-2.09 0-4.33.11-6 1.25-2.21 1.56-2.49 4.35-3.15 6.77a18.78 18.78 0 01-7.15 10c-2.37 1.73-5.16 3-7.43 4.82s-4 4.52-3.43 7.19 3.53 4.61 6.52 5.5 6.19 1 9.21 1.82c9.59 2.49 16.1 12 14.16 20.65-1 4.31-3.73 8.4-3.31 12.77.49 5.24 5.32 9.26 7.59 14.11 2.07 4.42 1.94 9.38 1.77 14.17q-.31 8.76-.61 17.53c-.16 4.62.24 10.18 4.8 12.44 2.44 1.2 5.48 1.07 8 2.13 4.94 2.06 6.24 7.67 6.64 12.49a129.1 129.1 0 01.08 20.53c-.23 3-.39 6.35 2 8.45a10.72 10.72 0 004 1.94 58.91 58.91 0 0015.42 2.64c4.2.16 8.64-.08 12.33 1.7 2.87 1.39 4.87 3.83 7.11 5.94a39.18 39.18 0 0023.17 10.15 10.71 10.71 0 003.35-.13 39.11 39.11 0 01-21.94-10.02zM588.93 432.63s-8 7.34-6.83 10.34 6.83-10.34 6.83-10.34z" opacity=".1"/><path d="M596.35 526.98c-5.77-1.41-21.68-2.71-29.25 22.68a112.32 112.32 0 01-6.71 17.17c-7.26 14.91-16.64 45.57 24.61 52.32l99 22.5s53 6.5 56.5 4 3-8 3-8-58.5 0-70-18-12-42.5-12-42.5 1.44-37.83-59-48.82c-2-.38-4.1-.85-6.15-1.35z"/><path d="M596.35 527.15c-5.77-1.41-21.68-2.71-29.25 22.69a112.32 112.32 0 01-6.71 17.17c-7.26 14.9-16.64 45.56 24.61 52.31l99 22.5s53 6.5 56.5 4 3-8 3-8-58.5 0-70-18-12-42.5-12-42.5 1.44-37.83-59-48.82c-2-.38-4.1-.87-6.15-1.35z" opacity=".1"/><path d="M803.88 501.11a15.29 15.29 0 00-15.45-12.92c-14.24.26-58.07 2.16-78.43 15.46 0 0-15.5 10-20 10s-65.5 52 25 98.5c0 0 48.5 13.8 67.5-18.6 0 0 13.5-34.8 12.5-46.85s9-44.55 9-44.55-.02-.39-.12-1.04z"/><path d="M803.88 509.87c-1.14-7-7.8-12.06-15.45-11.93-14.24.24-58.07 2-78.43 14.27 0 0-15.5 9.23-20 9.23s-65.5 48 25 90.93c0 0 48.5 12.74 67.5-17.17 0 0 13.5-32.13 12.5-43.25s9-41.12 9-41.12-.02-.36-.12-.96z" opacity=".1"/><path d="M739.5 612.14h16v34.07h-16z"/><ellipse cx="170.24" cy="470.71" rx="45.04" ry="2.89" opacity=".1"/><path d="M208.04 359.25a17.18 17.18 0 00-2.28 4.29c-.14.38-.28.8-.42 1.21a3.69 3.69 0 00-.79-.27 11.34 11.34 0 00-3.57-.31c0-.46.06-1 .07-1.46.15-5.27-.47-12.62-5.5-9.51-4.82 3-1.38 8 1.73 11.21l.8.78c-2.84 2-3.38 6.73-3.85 11.64s-4.64 10.29-7.41 13.34c-.28.31-.53.59-.78.85a10.11 10.11 0 00-8.05-2.07c-.11-.43-.24-.88-.37-1.36-2.24-8.08-6.89-22.09-12.82-25.16l.78-1c2.52-3.3 5.36-8.19 1.17-9.45s-4.57 4.25-4.34 8.37c0 .52.08 1 .12 1.46a6.17 6.17 0 00-4.38 2.14l-.65-.76c-3.4-4-9.63-10.37-11.52-5.56-1.76 4.48 3.73 10.29 7.59 13.66l.24.21c-2.59 10.53 8.69 19.13 14.81 22.85l.79.48c-8.4 9.9-13.59 28.45-13.59 28.45l23.52 4.2s15.6-13.45 13.6-26.09h.16c15.59-3.12 19.13-19.74 16.7-29.61l.28-.11a17.74 17.74 0 007.22-5.46c4.36-6.07-4.8-12.91-9.26-6.96z"/><path d="M208.04 359.25a17.18 17.18 0 00-2.28 4.29c-.14.38-.28.8-.42 1.21a3.69 3.69 0 00-.79-.27 11.34 11.34 0 00-3.57-.31c0-.46.06-1 .07-1.46.15-5.27-.47-12.62-5.5-9.51-4.82 3-1.38 8 1.73 11.21l.8.78c-2.84 2-3.38 6.73-3.85 11.64s-4.64 10.29-7.41 13.34c-.28.31-.53.59-.78.85a10.11 10.11 0 00-8.05-2.07c-.11-.43-.24-.88-.37-1.36-2.24-8.08-6.89-22.09-12.82-25.16l.78-1c2.52-3.3 5.36-8.19 1.17-9.45s-4.57 4.25-4.34 8.37c0 .52.08 1 .12 1.46a6.17 6.17 0 00-4.38 2.14l-.65-.76c-3.4-4-9.63-10.37-11.52-5.56-1.76 4.48 3.73 10.29 7.59 13.66l.24.21c-2.59 10.53 8.69 19.13 14.81 22.85l.79.48c-8.4 9.9-13.59 28.45-13.59 28.45l23.52 4.2s15.6-13.45 13.6-26.09h.16c15.59-3.12 19.13-19.74 16.7-29.61l.28-.11a17.74 17.74 0 007.22-5.46c4.36-6.07-4.8-12.91-9.26-6.96z" opacity=".1"/><path d="M161.22 366.03l-2.72 8.05s-1.53-1.08-3.46-2.78c-3.86-3.37-9.35-9.18-7.59-13.66 1.89-4.81 8.12 1.54 11.52 5.56 1.34 1.59 2.25 2.83 2.25 2.83zm5.8-4.59a38.89 38.89 0 01-2.68 3.15 42.22 42.22 0 01-.49-4.23c-.23-4.12.21-9.59 4.34-8.37s1.31 6.15-1.17 9.45zm35.48 1.27c-.08 2.65-.34 4.76-.34 4.76a34 34 0 01-3.43-3.06c-3.11-3.23-6.55-8.21-1.73-11.21 5.02-3.11 5.64 4.24 5.5 9.51zm16.24 3.47a17.74 17.74 0 01-7.24 5.45 20.18 20.18 0 01-2.42.87l-3.24-4.55a33.05 33.05 0 011.34-4.42 17.18 17.18 0 012.28-4.29c4.5-5.94 13.64.9 9.28 6.94z"/><path d="M158.94 363.2a51.63 51.63 0 012.28 2.83l-2.72 8.05s-1.53-1.08-3.46-2.78a15.75 15.75 0 013.1-7.07c.24-.37.53-.72.8-1.03zm8.08-1.76a38.89 38.89 0 01-2.68 3.15 42.22 42.22 0 01-.49-4.23 5.46 5.46 0 013.17 1.08z" opacity=".1"/><path d="M180.5 393.4l-6.84 3s-1.49-.72-3.64-2.06c-7.19-4.43-21.64-15.56-11.95-28.68s17.77 10.42 20.95 21.92c1.01 3.45 1.48 5.82 1.48 5.82z"/><path d="M198.72 364.41a5.57 5.57 0 013.77-1.7c-.08 2.65-.34 4.76-.34 4.76a34 34 0 01-3.43-3.06zm12.78 7.22a20.18 20.18 0 01-2.42.87l-3.24-4.55a33.05 33.05 0 011.34-4.42c2.11 1.24 3.65 4.27 4.32 8.1z" opacity=".1"/><path d="M194.5 401.36l-1.15.2c-22.93 3.49-7.56-8.88-7.56-8.88s1-.95 2.43-2.51c2.77-3.05 6.93-8.4 7.41-13.34.72-7.43 1.55-14.4 10.32-12.35 8.65 2.01 10.3 32.53-11.45 36.88zM150.3 458.44h43.81v11.52H150.3z"/><path d="M143.34 421h57.24v40.2h-57.24z"/><path opacity=".1" d="M149.88 458.44h43.81v11.52h-43.81z"/><path opacity=".1" d="M143.16 421.01h57.24v40.2h-57.24z"/><path d="M153.18 458.44h43.81v11.52h-43.81z"/><path d="M179.06 387.63c1 3.44 1.48 5.81 1.48 5.81l-6.84 3s-1.49-.72-3.64-2.06c2.68-3.43 5.7-6 9-6.75zm15.44 13.73l-1.15.2c-22.93 3.49-7.56-8.88-7.56-8.88s1-.95 2.43-2.51c4.28 3.46 6.09 7.29 6.28 11.19z" opacity=".1"/><path d="M157.26 423.28s12.84-46 30.85-31.8-7.33 36-7.33 36z"/><circle cx="163.74" cy="372.87" r="1.44" opacity=".1"/><circle cx="163.62" cy="379.6" r="1.44" opacity=".1"/><circle cx="205.39" cy="374.19" r="1.44" opacity=".1"/><circle cx="171.78" cy="408.64" r="1.44" opacity=".1"/><circle cx="202.39" cy="385.36" r="1.44" opacity=".1"/><circle cx="187.51" cy="400.24" r="1.44" opacity=".1"/><circle cx="168.66" cy="375.75" r="1.44" opacity=".1"/><circle cx="201.43" cy="378.52" r="1.44" opacity=".1"/><circle cx="196.51" cy="389.68" r="1.44" opacity=".1"/><circle cx="181.38" cy="407.56" r="1.44" opacity=".1"/><circle cx="178.26" cy="400.48" r="1.44" opacity=".1"/><circle cx="170.82" cy="384.52" r="1.44" opacity=".1"/><path opacity=".1" d="M153.18 458.44h43.81v4.21h-43.81z"/><path d="M146.22 421h57.24v40.2h-57.24z"/><circle cx="183.3" cy="414.04" r="1.44" opacity=".1"/><circle cx="174.66" cy="415.84" r="1.44" opacity=".1"/><path d="M311.89 574.63s7.13 9.33-3.29 23.41-19 26-15.56 34.76c0 0 15.74-26.16 28.55-26.52s4.39-15.91-9.7-31.65z"/><path d="M311.89 574.63a11.49 11.49 0 011.46 2.92c12.49 14.68 19.15 28.38 7.14 28.73-11.19.35-24.61 20.35-27.83 25.35.11.39.24.78.38 1.15 0 0 15.74-26.16 28.55-26.52s4.39-15.89-9.7-31.63z" opacity=".1"/><path d="M325.15 586.53c0 3.28-.37 5.94-.82 5.94s-.82-2.66-.82-5.94.46-1.74.91-1.74.73-1.55.73 1.74z"/><path d="M329.7 590.45c-2.88 1.57-5.39 2.52-5.61 2.12s1.94-2 4.83-3.57 1.74-.43 2 0 1.67-.12-1.22 1.45zM274.2 574.63s-7.13 9.33 3.29 23.41 19 26 15.55 34.76c0 0-15.73-26.16-28.54-26.52s-4.39-15.91 9.7-31.65z"/><path d="M274.2 574.63a11.49 11.49 0 00-1.46 2.92c-12.49 14.68-19.15 28.38-7.14 28.73 11.19.35 24.61 20.35 27.83 25.35a11.1 11.1 0 01-.39 1.15s-15.73-26.15-28.54-26.49-4.39-15.92 9.7-31.66z" opacity=".1"/><path d="M260.94 586.53c0 3.28.37 5.94.82 5.94s.82-2.66.82-5.94-.46-1.74-.91-1.74-.73-1.55-.73 1.74z"/><path d="M256.39 590.45c2.88 1.57 5.39 2.52 5.61 2.12s-1.94-2-4.83-3.57-1.74-.43-2 0-1.67-.12 1.22 1.45z"/><ellipse cx="293.04" cy="692.74" rx="74.6" ry="11.45" opacity=".1"/><path d="M331.44 620.24l-.36 2.91-.5 4.12-.2 1.71-.51 4.12-.21 1.72-.5 4.11-5.66 46.8c-.51 4.18-7.34 7.43-15.57 7.43h-29.72c-8.24 0-15-3.25-15.56-7.43l-5.72-46.8-.5-4.11-.21-1.72-.51-4.12-.2-1.71-.5-4.12-.36-2.91c-.29-2.36 3.4-4.36 8.07-4.36h60.66c4.65 0 8.35 2 8.06 4.36z"/><path d="M331.08 623.15l-.5 4.11h-75.07l-.5-4.11h76.07zm-.7 5.83l-.5 4.12h-73.66l-.51-4.12h74.67zm-.72 5.83l-.5 4.12h-72.23l-.5-4.12h73.23z"/></symbol></svg>